<svg xmlns="http://www.w3.org/2000/svg" xmlns:xlink="http://www.w3.org/1999/xlink" width="500" zoomAndPan="magnify" viewBox="0 0 375 374.999991" height="500" preserveAspectRatio="xMidYMid meet" version="1.0"><path fill="#ffffff" d="M 212.761719 239.265625 L 154.515625 239.265625 C 142.796875 239.265625 133.257812 229.726562 133.257812 218.007812 L 133.257812 159.765625 C 133.257812 148.042969 142.796875 138.507812 154.515625 138.507812 L 212.761719 138.507812 C 224.480469 138.507812 234.019531 148.042969 234.019531 159.765625 L 234.019531 218.007812 C 234.019531 229.726562 224.480469 239.265625 212.761719 239.265625 Z M 154.515625 150.691406 C 149.511719 150.691406 145.441406 154.757812 145.441406 159.765625 L 145.441406 218.007812 C 145.441406 223.015625 149.507812 227.082031 154.515625 227.082031 L 212.761719 227.082031 C 217.765625 227.082031 221.835938 223.015625 221.835938 218.007812 L 221.835938 159.765625 C 221.835938 154.761719 217.769531 150.691406 212.761719 150.691406 Z M 154.515625 150.691406 " fill-opacity="1" fill-rule="nonzero"/><path fill="#ffffff" d="M 193.023438 206.929688 L 184.261719 206.929688 L 182.042969 200.8125 L 166.574219 200.8125 L 164.300781 206.929688 L 155.539062 206.929688 L 169.5 170.84375 L 179.128906 170.84375 Z M 179.929688 194.054688 L 174.304688 178.53125 L 168.675781 194.054688 Z M 179.929688 194.054688 " fill-opacity="1" fill-rule="nonzero"/><path fill="#ffffff" d="M 196.378906 170.84375 L 204.0625 170.84375 L 204.0625 206.929688 L 196.378906 206.929688 Z M 196.378906 170.84375 " fill-opacity="1" fill-rule="nonzero"/><path fill="#ffffff" d="M 150.496094 131.191406 C 147.132812 131.191406 144.410156 128.464844 144.410156 125.101562 L 144.410156 117.042969 C 144.410156 113.679688 147.132812 110.957031 150.496094 110.957031 C 153.859375 110.957031 156.585938 113.679688 156.585938 117.042969 L 156.585938 125.101562 C 156.585938 128.464844 153.859375 131.191406 150.496094 131.191406 Z M 150.496094 131.191406 " fill-opacity="1" fill-rule="nonzero"/><path fill="#ffffff" d="M 183.382812 131.191406 C 180.019531 131.191406 177.292969 128.464844 177.292969 125.101562 L 177.292969 117.042969 C 177.292969 113.679688 180.019531 110.957031 183.382812 110.957031 C 186.746094 110.957031 189.472656 113.679688 189.472656 117.042969 L 189.472656 125.101562 C 189.472656 128.464844 186.746094 131.191406 183.382812 131.191406 Z M 183.382812 131.191406 " fill-opacity="1" fill-rule="nonzero"/><path fill="#ffffff" d="M 216.265625 131.191406 C 212.902344 131.191406 210.175781 128.464844 210.175781 125.101562 L 210.175781 117.042969 C 210.175781 113.679688 212.902344 110.957031 216.265625 110.957031 C 219.628906 110.957031 222.351562 113.679688 222.351562 117.042969 L 222.351562 125.101562 C 222.355469 128.464844 219.632812 131.191406 216.265625 131.191406 Z M 216.265625 131.191406 " fill-opacity="1" fill-rule="nonzero"/><path fill="#ffffff" d="M 254.980469 159.496094 L 246.921875 159.496094 C 243.558594 159.496094 240.832031 156.769531 240.832031 153.40625 C 240.832031 150.042969 243.558594 147.316406 246.921875 147.316406 L 254.980469 147.316406 C 258.34375 147.316406 261.070312 150.042969 261.070312 153.40625 C 261.070312 156.769531 258.34375 159.496094 254.980469 159.496094 Z M 254.980469 159.496094 " fill-opacity="1" fill-rule="nonzero"/><path fill="#ffffff" d="M 254.980469 192.378906 L 246.921875 192.378906 C 243.558594 192.378906 240.832031 189.65625 240.832031 186.292969 C 240.832031 182.929688 243.558594 180.203125 246.921875 180.203125 L 254.980469 180.203125 C 258.34375 180.203125 261.070312 182.929688 261.070312 186.292969 C 261.070312 189.65625 258.34375 192.378906 254.980469 192.378906 Z M 254.980469 192.378906 " fill-opacity="1" fill-rule="nonzero"/><path fill="#ffffff" d="M 254.980469 225.265625 L 246.921875 225.265625 C 243.558594 225.265625 240.832031 222.539062 240.832031 219.175781 C 240.832031 215.8125 243.558594 213.089844 246.921875 213.089844 L 254.980469 213.089844 C 258.34375 213.089844 261.070312 215.8125 261.070312 219.175781 C 261.070312 222.539062 258.34375 225.265625 254.980469 225.265625 Z M 254.980469 225.265625 " fill-opacity="1" fill-rule="nonzero"/><path fill="#ffffff" d="M 117.722656 159.496094 L 109.664062 159.496094 C 106.300781 159.496094 103.578125 156.769531 103.578125 153.40625 C 103.578125 150.042969 106.300781 147.316406 109.664062 147.316406 L 117.722656 147.316406 C 121.085938 147.316406 123.8125 150.042969 123.8125 153.40625 C 123.8125 156.769531 121.085938 159.496094 117.722656 159.496094 Z M 117.722656 159.496094 " fill-opacity="1" fill-rule="nonzero"/><path fill="#ffffff" d="M 117.722656 192.378906 L 109.664062 192.378906 C 106.300781 192.378906 103.578125 189.65625 103.578125 186.292969 C 103.578125 182.929688 106.300781 180.203125 109.664062 180.203125 L 117.722656 180.203125 C 121.085938 180.203125 123.8125 182.929688 123.8125 186.292969 C 123.8125 189.65625 121.085938 192.378906 117.722656 192.378906 Z M 117.722656 192.378906 " fill-opacity="1" fill-rule="nonzero"/><path fill="#ffffff" d="M 117.722656 225.265625 L 109.664062 225.265625 C 106.300781 225.265625 103.578125 222.539062 103.578125 219.175781 C 103.578125 215.8125 106.300781 213.089844 109.664062 213.089844 L 117.722656 213.089844 C 121.085938 213.089844 123.8125 215.8125 123.8125 219.175781 C 123.8125 222.539062 121.085938 225.265625 117.722656 225.265625 Z M 117.722656 225.265625 " fill-opacity="1" fill-rule="nonzero"/><path fill="#ffffff" d="M 150.496094 266.820312 C 147.132812 266.820312 144.410156 264.097656 144.410156 260.734375 L 144.410156 252.675781 C 144.410156 249.3125 147.132812 246.585938 150.496094 246.585938 C 153.859375 246.585938 156.585938 249.3125 156.585938 252.675781 L 156.585938 260.734375 C 156.585938 264.097656 153.859375 266.820312 150.496094 266.820312 Z M 150.496094 266.820312 " fill-opacity="1" fill-rule="nonzero"/><path fill="#ffffff" d="M 183.382812 266.820312 C 180.019531 266.820312 177.292969 264.097656 177.292969 260.734375 L 177.292969 252.675781 C 177.292969 249.3125 180.019531 246.585938 183.382812 246.585938 C 186.746094 246.585938 189.472656 249.3125 189.472656 252.675781 L 189.472656 260.734375 C 189.472656 264.097656 186.746094 266.820312 183.382812 266.820312 Z M 183.382812 266.820312 " fill-opacity="1" fill-rule="nonzero"/><path fill="#ffffff" d="M 216.265625 266.820312 C 212.902344 266.820312 210.175781 264.097656 210.175781 260.734375 L 210.175781 252.675781 C 210.175781 249.3125 212.902344 246.585938 216.265625 246.585938 C 219.628906 246.585938 222.351562 249.3125 222.351562 252.675781 L 222.351562 260.734375 C 222.355469 264.097656 219.632812 266.820312 216.265625 266.820312 Z M 216.265625 266.820312 " fill-opacity="1" fill-rule="nonzero"/><path fill="#ffffff" d="M 125.070312 336.023438 C 101.972656 336.023438 81.660156 329.066406 67.066406 314.472656 C 46.554688 293.964844 40.238281 262.03125 49.285156 224.554688 C 58.074219 188.148438 80.425781 150.585938 112.222656 118.789062 C 178.617188 52.390625 266.410156 32.132812 307.90625 73.632812 C 349.40625 115.132812 329.152344 202.917969 262.75 269.316406 C 219.707031 312.367188 167.65625 336.023438 125.070312 336.023438 Z M 249.570312 63.914062 C 210.527344 63.914062 161.648438 86.585938 120.832031 127.398438 C 59.179688 189.050781 38.925781 269.105469 75.675781 305.863281 C 112.425781 342.605469 192.488281 322.351562 254.140625 260.707031 C 315.789062 199.054688 336.046875 119 299.292969 82.246094 C 286.875 69.828125 269.503906 63.914062 249.570312 63.914062 Z M 258.449219 265.011719 L 258.472656 265.011719 Z M 258.449219 265.011719 " fill-opacity="1" fill-rule="nonzero"/><path fill="#ffffff" d="M 249.902344 336.023438 C 207.316406 336.023438 155.273438 312.371094 112.222656 269.320312 C 45.820312 202.917969 25.566406 115.132812 67.066406 73.632812 C 108.566406 32.128906 196.355469 52.390625 262.75 118.789062 C 294.546875 150.585938 316.898438 188.148438 325.6875 224.554688 C 334.730469 262.03125 328.414062 293.964844 307.90625 314.472656 C 293.316406 329.066406 273 336.023438 249.902344 336.023438 Z M 120.835938 260.707031 C 182.488281 322.359375 262.542969 342.613281 299.300781 305.863281 C 336.050781 269.113281 315.792969 189.054688 254.144531 127.398438 C 192.492188 65.75 112.441406 45.496094 75.679688 82.246094 C 38.929688 118.996094 59.1875 199.050781 120.835938 260.707031 Z M 120.835938 260.707031 " fill-opacity="1" fill-rule="nonzero"/><path fill="#ffffff" d="M 312.304688 67.855469 C 312.304688 68.410156 312.277344 68.964844 312.222656 69.519531 C 312.167969 70.074219 312.085938 70.625 311.976562 71.171875 C 311.867188 71.714844 311.734375 72.257812 311.570312 72.789062 C 311.410156 73.320312 311.222656 73.84375 311.011719 74.359375 C 310.796875 74.875 310.558594 75.378906 310.296875 75.867188 C 310.035156 76.359375 309.75 76.835938 309.4375 77.300781 C 309.128906 77.761719 308.796875 78.210938 308.445312 78.640625 C 308.089844 79.070312 307.71875 79.480469 307.324219 79.875 C 306.929688 80.269531 306.519531 80.644531 306.089844 80.996094 C 305.65625 81.351562 305.210938 81.679688 304.746094 81.992188 C 304.285156 82.300781 303.808594 82.585938 303.316406 82.847656 C 302.824219 83.109375 302.324219 83.347656 301.808594 83.5625 C 301.292969 83.773438 300.769531 83.960938 300.238281 84.125 C 299.703125 84.285156 299.164062 84.421875 298.617188 84.53125 C 298.074219 84.636719 297.523438 84.71875 296.96875 84.773438 C 296.414062 84.828125 295.859375 84.855469 295.300781 84.855469 C 294.746094 84.855469 294.191406 84.828125 293.636719 84.773438 C 293.082031 84.71875 292.53125 84.636719 291.984375 84.53125 C 291.4375 84.421875 290.898438 84.285156 290.367188 84.125 C 289.832031 83.960938 289.308594 83.773438 288.796875 83.5625 C 288.28125 83.347656 287.777344 83.109375 287.285156 82.847656 C 286.796875 82.585938 286.320312 82.300781 285.855469 81.992188 C 285.394531 81.679688 284.945312 81.351562 284.515625 80.996094 C 284.085938 80.644531 283.671875 80.269531 283.28125 79.875 C 282.886719 79.480469 282.511719 79.070312 282.160156 78.640625 C 281.804688 78.210938 281.472656 77.761719 281.164062 77.300781 C 280.855469 76.835938 280.570312 76.359375 280.308594 75.867188 C 280.042969 75.378906 279.808594 74.875 279.59375 74.359375 C 279.378906 73.84375 279.191406 73.320312 279.03125 72.789062 C 278.871094 72.257812 278.734375 71.714844 278.625 71.171875 C 278.515625 70.625 278.4375 70.074219 278.382812 69.519531 C 278.328125 68.964844 278.300781 68.410156 278.300781 67.855469 C 278.300781 67.296875 278.328125 66.742188 278.382812 66.1875 C 278.4375 65.632812 278.515625 65.082031 278.625 64.535156 C 278.734375 63.992188 278.871094 63.449219 279.03125 62.917969 C 279.191406 62.386719 279.378906 61.863281 279.59375 61.347656 C 279.808594 60.832031 280.042969 60.328125 280.308594 59.839844 C 280.570312 59.347656 280.855469 58.871094 281.164062 58.40625 C 281.472656 57.945312 281.804688 57.496094 282.160156 57.066406 C 282.511719 56.636719 282.886719 56.226562 283.277344 55.832031 C 283.671875 55.4375 284.085938 55.0625 284.515625 54.710938 C 284.945312 54.355469 285.394531 54.027344 285.855469 53.714844 C 286.320312 53.40625 286.796875 53.121094 287.285156 52.859375 C 287.777344 52.597656 288.28125 52.359375 288.796875 52.144531 C 289.308594 51.933594 289.832031 51.746094 290.367188 51.582031 C 290.898438 51.421875 291.4375 51.285156 291.984375 51.179688 C 292.53125 51.070312 293.082031 50.988281 293.636719 50.933594 C 294.191406 50.878906 294.746094 50.851562 295.300781 50.851562 C 295.859375 50.851562 296.414062 50.878906 296.96875 50.933594 C 297.523438 50.988281 298.074219 51.070312 298.617188 51.179688 C 299.164062 51.285156 299.703125 51.421875 300.238281 51.582031 C 300.769531 51.746094 301.292969 51.933594 301.808594 52.144531 C 302.324219 52.359375 302.824219 52.597656 303.316406 52.859375 C 303.808594 53.121094 304.285156 53.40625 304.746094 53.714844 C 305.210938 54.027344 305.65625 54.355469 306.089844 54.710938 C 306.519531 55.0625 306.929688 55.4375 307.324219 55.832031 C 307.71875 56.226562 308.089844 56.636719 308.445312 57.066406 C 308.796875 57.496094 309.128906 57.945312 309.4375 58.40625 C 309.75 58.871094 310.035156 59.347656 310.296875 59.839844 C 310.558594 60.328125 310.796875 60.832031 311.011719 61.347656 C 311.222656 61.863281 311.410156 62.386719 311.570312 62.917969 C 311.734375 63.449219 311.867188 63.992188 311.976562 64.535156 C 312.085938 65.082031 312.167969 65.632812 312.222656 66.1875 C 312.277344 66.742188 312.304688 67.296875 312.304688 67.855469 Z M 312.304688 67.855469 " fill-opacity="1" fill-rule="nonzero"/><path fill="#ffffff" d="M 330.0625 312.164062 C 330.0625 312.964844 330.023438 313.761719 329.945312 314.558594 C 329.867188 315.359375 329.75 316.148438 329.59375 316.933594 C 329.4375 317.722656 329.242188 318.496094 329.007812 319.265625 C 328.777344 320.03125 328.507812 320.785156 328.199219 321.523438 C 327.894531 322.265625 327.550781 322.988281 327.175781 323.695312 C 326.796875 324.402344 326.386719 325.089844 325.941406 325.753906 C 325.496094 326.421875 325.019531 327.0625 324.511719 327.683594 C 324 328.300781 323.464844 328.894531 322.898438 329.460938 C 322.332031 330.027344 321.738281 330.566406 321.117188 331.074219 C 320.5 331.582031 319.855469 332.058594 319.191406 332.503906 C 318.523438 332.949219 317.835938 333.359375 317.132812 333.738281 C 316.425781 334.117188 315.699219 334.457031 314.960938 334.765625 C 314.21875 335.070312 313.46875 335.339844 312.699219 335.574219 C 311.933594 335.804688 311.15625 336 310.371094 336.15625 C 309.585938 336.3125 308.792969 336.429688 307.996094 336.507812 C 307.199219 336.585938 306.398438 336.625 305.597656 336.625 C 304.796875 336.625 304 336.585938 303.199219 336.507812 C 302.402344 336.429688 301.613281 336.3125 300.824219 336.15625 C 300.039062 336 299.265625 335.804688 298.496094 335.574219 C 297.730469 335.339844 296.976562 335.070312 296.238281 334.765625 C 295.496094 334.457031 294.773438 334.117188 294.066406 333.738281 C 293.359375 333.359375 292.671875 332.949219 292.007812 332.503906 C 291.339844 332.058594 290.699219 331.582031 290.078125 331.074219 C 289.460938 330.566406 288.867188 330.027344 288.300781 329.460938 C 287.734375 328.894531 287.195312 328.300781 286.6875 327.683594 C 286.179688 327.0625 285.703125 326.421875 285.257812 325.753906 C 284.8125 325.089844 284.402344 324.402344 284.023438 323.695312 C 283.644531 322.988281 283.304688 322.265625 282.996094 321.523438 C 282.691406 320.785156 282.421875 320.03125 282.1875 319.265625 C 281.957031 318.496094 281.761719 317.722656 281.605469 316.933594 C 281.449219 316.148438 281.332031 315.359375 281.253906 314.558594 C 281.175781 313.761719 281.132812 312.964844 281.132812 312.164062 C 281.132812 311.359375 281.175781 310.5625 281.253906 309.765625 C 281.332031 308.96875 281.449219 308.175781 281.605469 307.390625 C 281.761719 306.605469 281.957031 305.828125 282.1875 305.0625 C 282.421875 304.292969 282.691406 303.539062 282.996094 302.800781 C 283.304688 302.058594 283.644531 301.335938 284.023438 300.628906 C 284.402344 299.921875 284.8125 299.238281 285.257812 298.570312 C 285.703125 297.90625 286.179688 297.261719 286.6875 296.640625 C 287.195312 296.023438 287.734375 295.429688 288.300781 294.863281 C 288.867188 294.296875 289.460938 293.757812 290.078125 293.25 C 290.699219 292.742188 291.339844 292.265625 292.007812 291.820312 C 292.671875 291.375 293.359375 290.964844 294.066406 290.585938 C 294.773438 290.210938 295.496094 289.867188 296.238281 289.558594 C 296.976562 289.253906 297.730469 288.984375 298.496094 288.75 C 299.265625 288.519531 300.039062 288.324219 300.824219 288.167969 C 301.613281 288.011719 302.402344 287.894531 303.199219 287.816406 C 304 287.738281 304.796875 287.699219 305.597656 287.699219 C 306.398438 287.699219 307.199219 287.738281 307.996094 287.816406 C 308.792969 287.894531 309.585938 288.011719 310.371094 288.167969 C 311.15625 288.324219 311.933594 288.519531 312.699219 288.75 C 313.46875 288.984375 314.21875 289.253906 314.960938 289.558594 C 315.699219 289.867188 316.425781 290.210938 317.132812 290.585938 C 317.835938 290.964844 318.523438 291.375 319.191406 291.820312 C 319.855469 292.265625 320.5 292.742188 321.117188 293.25 C 321.738281 293.757812 322.332031 294.296875 322.898438 294.863281 C 323.464844 295.429688 324 296.023438 324.511719 296.640625 C 325.019531 297.261719 325.496094 297.90625 325.941406 298.570312 C 326.386719 299.238281 326.796875 299.921875 327.175781 300.628906 C 327.550781 301.335938 327.894531 302.058594 328.199219 302.800781 C 328.507812 303.539062 328.777344 304.292969 329.007812 305.0625 C 329.242188 305.828125 329.4375 306.605469 329.59375 307.390625 C 329.75 308.175781 329.867188 308.96875 329.945312 309.765625 C 330.023438 310.5625 330.0625 311.359375 330.0625 312.164062 Z M 330.0625 312.164062 " fill-opacity="1" fill-rule="nonzero"/><path fill="#ffffff" d="M 127.359375 260.726562 C 127.359375 261.308594 127.332031 261.886719 127.273438 262.464844 C 127.21875 263.039062 127.132812 263.613281 127.019531 264.179688 C 126.90625 264.75 126.765625 265.308594 126.597656 265.863281 C 126.429688 266.417969 126.234375 266.964844 126.011719 267.5 C 125.792969 268.035156 125.542969 268.558594 125.269531 269.070312 C 124.996094 269.582031 124.699219 270.078125 124.378906 270.558594 C 124.054688 271.042969 123.710938 271.507812 123.34375 271.953125 C 122.976562 272.402344 122.585938 272.832031 122.175781 273.242188 C 121.769531 273.652344 121.339844 274.039062 120.890625 274.40625 C 120.441406 274.773438 119.976562 275.121094 119.496094 275.441406 C 119.015625 275.761719 118.519531 276.0625 118.007812 276.335938 C 117.496094 276.609375 116.972656 276.855469 116.4375 277.078125 C 115.902344 277.296875 115.355469 277.492188 114.800781 277.660156 C 114.246094 277.828125 113.683594 277.96875 113.117188 278.082031 C 112.546875 278.195312 111.976562 278.28125 111.398438 278.339844 C 110.824219 278.394531 110.246094 278.425781 109.664062 278.425781 C 109.085938 278.425781 108.507812 278.394531 107.929688 278.339844 C 107.355469 278.28125 106.78125 278.195312 106.210938 278.082031 C 105.644531 277.96875 105.082031 277.828125 104.527344 277.660156 C 103.972656 277.492188 103.429688 277.296875 102.894531 277.078125 C 102.359375 276.855469 101.835938 276.609375 101.324219 276.335938 C 100.8125 276.0625 100.316406 275.761719 99.832031 275.441406 C 99.351562 275.121094 98.886719 274.773438 98.4375 274.40625 C 97.992188 274.039062 97.5625 273.652344 97.152344 273.242188 C 96.742188 272.832031 96.355469 272.402344 95.984375 271.953125 C 95.617188 271.507812 95.273438 271.042969 94.953125 270.558594 C 94.628906 270.078125 94.332031 269.582031 94.058594 269.070312 C 93.785156 268.558594 93.539062 268.035156 93.316406 267.5 C 93.09375 266.964844 92.898438 266.417969 92.730469 265.863281 C 92.5625 265.308594 92.421875 264.75 92.308594 264.179688 C 92.195312 263.613281 92.113281 263.039062 92.054688 262.464844 C 91.996094 261.886719 91.96875 261.308594 91.96875 260.726562 C 91.96875 260.148438 91.996094 259.570312 92.054688 258.992188 C 92.113281 258.417969 92.195312 257.84375 92.308594 257.277344 C 92.421875 256.707031 92.5625 256.144531 92.730469 255.589844 C 92.898438 255.039062 93.09375 254.492188 93.316406 253.957031 C 93.539062 253.421875 93.785156 252.898438 94.058594 252.386719 C 94.332031 251.875 94.628906 251.378906 94.953125 250.898438 C 95.273438 250.414062 95.617188 249.949219 95.984375 249.503906 C 96.355469 249.054688 96.742188 248.625 97.152344 248.214844 C 97.5625 247.804688 97.992188 247.417969 98.4375 247.050781 C 98.886719 246.683594 99.351562 246.335938 99.832031 246.015625 C 100.316406 245.691406 100.8125 245.394531 101.324219 245.121094 C 101.835938 244.847656 102.359375 244.601562 102.894531 244.378906 C 103.429688 244.160156 103.972656 243.964844 104.527344 243.796875 C 105.082031 243.625 105.644531 243.484375 106.210938 243.371094 C 106.78125 243.261719 107.355469 243.175781 107.929688 243.117188 C 108.507812 243.0625 109.085938 243.03125 109.664062 243.03125 C 110.246094 243.03125 110.824219 243.0625 111.398438 243.117188 C 111.976562 243.175781 112.546875 243.261719 113.117188 243.371094 C 113.6875 243.484375 114.246094 243.625 114.800781 243.796875 C 115.355469 243.964844 115.902344 244.160156 116.4375 244.378906 C 116.972656 244.601562 117.496094 244.847656 118.007812 245.121094 C 118.515625 245.394531 119.015625 245.691406 119.496094 246.015625 C 119.976562 246.335938 120.441406 246.683594 120.890625 247.050781 C 121.339844 247.417969 121.769531 247.804688 122.175781 248.214844 C 122.585938 248.625 122.976562 249.054688 123.34375 249.503906 C 123.710938 249.949219 124.054688 250.414062 124.378906 250.898438 C 124.699219 251.378906 124.996094 251.875 125.269531 252.386719 C 125.542969 252.898438 125.792969 253.421875 126.011719 253.957031 C 126.234375 254.492188 126.429688 255.039062 126.597656 255.589844 C 126.765625 256.144531 126.90625 256.707031 127.019531 257.277344 C 127.132812 257.84375 127.21875 258.417969 127.273438 258.992188 C 127.332031 259.570312 127.359375 260.148438 127.359375 260.726562 Z M 127.359375 260.726562 " fill-opacity="1" fill-rule="nonzero"/></svg>