<svg xmlns="http://www.w3.org/2000/svg" xmlns:xlink="http://www.w3.org/1999/xlink" width="500" zoomAndPan="magnify" viewBox="0 0 375 374.999991" height="500" preserveAspectRatio="xMidYMid meet" version="1.0"><defs><clipPath id="083a5f3b29"><path d="M 59 70.898438 L 316 70.898438 L 316 304.148438 L 59 304.148438 Z M 59 70.898438 " clip-rule="nonzero"/></clipPath></defs><g clip-path="url(#083a5f3b29)"><path fill="#ffffff" d="M 301.285156 227.527344 L 73.710938 227.527344 L 73.710938 85.488281 L 301.285156 85.488281 Z M 212.511719 250.929688 L 162.484375 250.929688 C 159.808594 250.929688 157.636719 248.765625 157.636719 246.089844 C 157.636719 243.417969 159.808594 241.246094 162.484375 241.246094 L 212.511719 241.246094 C 215.191406 241.246094 217.359375 243.417969 217.359375 246.089844 C 217.359375 248.765625 215.191406 250.929688 212.511719 250.929688 Z M 307.503906 70.96875 L 67.488281 70.96875 C 62.910156 70.96875 59.183594 74.695312 59.183594 79.273438 L 59.183594 256.34375 C 59.183594 260.921875 62.910156 264.648438 67.488281 264.648438 L 179.425781 264.648438 L 179.425781 286.953125 L 165.90625 286.953125 C 165.53125 286.953125 165.164062 287.066406 164.855469 287.285156 L 145.453125 300.859375 C 143.992188 301.886719 144.710938 304.195312 146.511719 304.195312 L 228.484375 304.195312 C 230.28125 304.195312 231.003906 301.886719 229.539062 300.859375 L 210.140625 287.285156 C 209.832031 287.066406 209.464844 286.953125 209.089844 286.953125 L 195.570312 286.953125 L 195.570312 264.648438 L 307.503906 264.648438 C 312.082031 264.648438 315.8125 260.921875 315.8125 256.34375 L 315.8125 79.273438 C 315.8125 74.695312 312.082031 70.96875 307.503906 70.96875 " fill-opacity="1" fill-rule="nonzero"/></g><path fill="#ffffff" d="M 128.320312 122.433594 C 138.578125 122.433594 146.917969 130.78125 146.917969 141.035156 C 146.917969 151.292969 138.578125 159.632812 128.320312 159.632812 C 118.066406 159.632812 109.726562 151.292969 109.726562 141.035156 C 109.726562 130.78125 118.066406 122.433594 128.320312 122.433594 Z M 101.285156 156.878906 L 95.445312 164.519531 L 104.839844 173.914062 L 112.480469 168.074219 C 114.933594 169.523438 117.59375 170.640625 120.414062 171.375 L 121.683594 180.890625 L 134.960938 180.890625 L 136.230469 171.375 C 139.050781 170.640625 141.710938 169.523438 144.164062 168.074219 L 151.804688 173.914062 L 161.199219 164.519531 L 155.359375 156.878906 C 156.808594 154.425781 157.925781 151.765625 158.667969 148.945312 L 168.175781 147.675781 L 168.175781 134.390625 L 158.667969 133.128906 C 157.925781 130.308594 156.808594 127.648438 155.359375 125.1875 L 161.199219 117.554688 L 151.804688 108.160156 L 144.164062 114 C 141.710938 112.550781 139.050781 111.433594 136.230469 110.691406 L 134.960938 101.183594 L 121.683594 101.183594 L 120.414062 110.691406 C 117.59375 111.433594 114.933594 112.550781 112.480469 114 L 104.839844 108.160156 L 95.445312 117.554688 L 101.285156 125.1875 C 99.835938 127.648438 98.71875 130.308594 97.976562 133.128906 L 88.46875 134.390625 L 88.46875 147.675781 L 97.976562 148.945312 C 98.71875 151.765625 99.835938 154.425781 101.285156 156.878906 " fill-opacity="1" fill-rule="nonzero"/><path fill="#ffffff" d="M 259.769531 167.246094 L 276.394531 183.871094 L 263.597656 196.671875 L 266.042969 204.355469 L 286.527344 183.871094 L 264.835938 162.183594 L 259.769531 167.246094 " fill-opacity="1" fill-rule="nonzero"/><path fill="#ffffff" d="M 237.5625 171.074219 L 235.113281 163.386719 L 214.632812 183.871094 L 236.316406 205.566406 L 241.382812 200.492188 L 224.761719 183.871094 L 237.5625 171.074219 " fill-opacity="1" fill-rule="nonzero"/><path fill="#ffffff" d="M 238.5625 156.050781 L 256.828125 213.53125 L 262.59375 211.695312 L 244.332031 154.21875 L 238.5625 156.050781 " fill-opacity="1" fill-rule="nonzero"/><path fill="#ffffff" d="M 286.527344 97.761719 L 178.742188 97.761719 L 178.742188 106.316406 L 286.527344 106.316406 L 286.527344 97.761719 " fill-opacity="1" fill-rule="nonzero"/><path fill="#ffffff" d="M 196.253906 190.148438 L 88.46875 190.148438 L 88.46875 198.703125 L 196.253906 198.703125 L 196.253906 190.148438 " fill-opacity="1" fill-rule="nonzero"/><path fill="#ffffff" d="M 132.949219 214.097656 L 196.253906 214.097656 L 196.253906 205.546875 L 132.949219 205.546875 L 132.949219 214.097656 " fill-opacity="1" fill-rule="nonzero"/><path fill="#ffffff" d="M 204.40625 123.421875 L 286.527344 123.421875 L 286.527344 114.867188 L 204.40625 114.867188 L 204.40625 123.421875 " fill-opacity="1" fill-rule="nonzero"/><path fill="#ffffff" d="M 216.382812 140.53125 L 286.527344 140.53125 L 286.527344 131.976562 L 216.382812 131.976562 L 216.382812 140.53125 " fill-opacity="1" fill-rule="nonzero"/></svg>