<svg xmlns="http://www.w3.org/2000/svg" xmlns:xlink="http://www.w3.org/1999/xlink" width="500" zoomAndPan="magnify" viewBox="0 0 375 374.999991" height="500" preserveAspectRatio="xMidYMid meet" version="1.0"><defs><clipPath id="c74a255775"><path d="M 35.640625 60.507812 L 339.390625 60.507812 L 339.390625 314.757812 L 35.640625 314.757812 Z M 35.640625 60.507812 " clip-rule="nonzero"/></clipPath><clipPath id="1735d2dcc7"><path d="M 35.640625 116 L 339.390625 116 L 339.390625 124 L 35.640625 124 Z M 35.640625 116 " clip-rule="nonzero"/></clipPath><clipPath id="37c1e11f1d"><path d="M 138 116 L 145 116 L 145 314.757812 L 138 314.757812 Z M 138 116 " clip-rule="nonzero"/></clipPath><clipPath id="1fb209cacb"><path d="M 279 252 L 309 252 L 309 314.757812 L 279 314.757812 Z M 279 252 " clip-rule="nonzero"/></clipPath><clipPath id="a27dcfbd71"><path d="M 242 234 L 272 234 L 272 314.757812 L 242 314.757812 Z M 242 234 " clip-rule="nonzero"/></clipPath><clipPath id="192d1a5046"><path d="M 206 223 L 235 223 L 235 314.757812 L 206 314.757812 Z M 206 223 " clip-rule="nonzero"/></clipPath><clipPath id="469568660f"><path d="M 169 198 L 198 198 L 198 314.757812 L 169 314.757812 Z M 169 198 " clip-rule="nonzero"/></clipPath></defs><g clip-path="url(#c74a255775)"><path fill="#ffffff" d="M 61.195312 67.121094 C 50.824219 67.121094 42.382812 75.554688 42.382812 85.929688 L 42.382812 289.050781 C 42.382812 299.425781 50.824219 307.867188 61.195312 307.867188 L 313.59375 307.867188 C 323.964844 307.867188 332.40625 299.425781 332.40625 289.050781 L 332.40625 85.925781 C 332.40625 75.554688 323.964844 67.121094 313.59375 67.121094 Z M 313.589844 314.488281 L 61.195312 314.488281 C 47.171875 314.488281 35.761719 303.082031 35.761719 289.050781 L 35.761719 85.925781 C 35.761719 71.90625 47.171875 60.5 61.195312 60.5 L 313.59375 60.5 C 327.613281 60.5 339.027344 71.90625 339.027344 85.929688 L 339.027344 289.050781 C 339.027344 303.078125 327.613281 314.488281 313.59375 314.488281 Z M 313.589844 314.488281 " fill-opacity="1" fill-rule="evenodd"/></g><g clip-path="url(#1735d2dcc7)"><path fill="#ffffff" d="M 335.71875 123.429688 L 39.074219 123.429688 C 37.246094 123.429688 35.761719 121.953125 35.761719 120.117188 C 35.761719 118.289062 37.246094 116.808594 39.074219 116.808594 L 335.71875 116.808594 C 337.542969 116.808594 339.027344 118.289062 339.027344 120.117188 C 339.027344 121.953125 337.542969 123.429688 335.71875 123.429688 Z M 335.71875 123.429688 " fill-opacity="1" fill-rule="evenodd"/></g><path fill="#ffffff" d="M 210.910156 84.210938 C 206.636719 84.210938 203.160156 87.6875 203.160156 91.964844 C 203.160156 96.238281 206.636719 99.714844 210.910156 99.714844 C 215.183594 99.714844 218.660156 96.242188 218.660156 91.964844 C 218.660156 87.6875 215.183594 84.210938 210.910156 84.210938 Z M 210.910156 106.335938 C 202.984375 106.335938 196.539062 99.890625 196.539062 91.964844 C 196.539062 84.039062 202.984375 77.589844 210.910156 77.589844 C 218.835938 77.589844 225.28125 84.039062 225.28125 91.964844 C 225.28125 99.890625 218.835938 106.335938 210.910156 106.335938 Z M 210.910156 106.335938 " fill-opacity="1" fill-rule="evenodd"/><path fill="#ffffff" d="M 256.035156 84.210938 C 251.761719 84.210938 248.285156 87.6875 248.285156 91.964844 C 248.285156 96.238281 251.761719 99.714844 256.035156 99.714844 C 260.3125 99.714844 263.789062 96.242188 263.789062 91.964844 C 263.789062 87.6875 260.3125 84.210938 256.035156 84.210938 Z M 256.035156 106.335938 C 248.113281 106.335938 241.664062 99.890625 241.664062 91.964844 C 241.664062 84.039062 248.113281 77.589844 256.035156 77.589844 C 263.960938 77.589844 270.410156 84.039062 270.410156 91.964844 C 270.410156 99.890625 263.960938 106.335938 256.035156 106.335938 Z M 256.035156 106.335938 " fill-opacity="1" fill-rule="evenodd"/><path fill="#ffffff" d="M 301.164062 84.210938 C 296.890625 84.210938 293.414062 87.6875 293.414062 91.964844 C 293.414062 96.238281 296.890625 99.714844 301.164062 99.714844 C 305.4375 99.714844 308.914062 96.242188 308.914062 91.964844 C 308.914062 87.6875 305.4375 84.210938 301.164062 84.210938 Z M 301.164062 106.335938 C 293.238281 106.335938 286.792969 99.890625 286.792969 91.964844 C 286.792969 84.039062 293.238281 77.589844 301.164062 77.589844 C 309.089844 77.589844 315.539062 84.039062 315.539062 91.964844 C 315.539062 99.890625 309.089844 106.335938 301.164062 106.335938 Z M 301.164062 106.335938 " fill-opacity="1" fill-rule="evenodd"/><path fill="#ffffff" d="M 71.113281 86.730469 C 68.222656 86.730469 65.875 89.074219 65.875 91.964844 C 65.875 94.855469 68.222656 97.199219 71.113281 97.199219 L 152.5625 97.199219 C 155.449219 97.199219 157.796875 94.855469 157.796875 91.964844 C 157.796875 89.074219 155.449219 86.730469 152.5625 86.730469 Z M 152.5625 103.820312 L 71.113281 103.820312 C 64.574219 103.820312 59.253906 98.503906 59.253906 91.964844 C 59.253906 85.425781 64.574219 80.109375 71.113281 80.109375 L 152.5625 80.109375 C 159.101562 80.109375 164.417969 85.425781 164.417969 91.964844 C 164.417969 98.503906 159.101562 103.820312 152.5625 103.820312 Z M 152.5625 103.820312 " fill-opacity="1" fill-rule="evenodd"/><path fill="#ffffff" d="M 90.378906 146.996094 C 75.375 146.996094 63.167969 159.203125 63.167969 174.203125 C 63.167969 189.210938 75.375 201.414062 90.378906 201.414062 C 105.382812 201.414062 117.589844 189.210938 117.589844 174.203125 C 117.589844 159.203125 105.382812 146.996094 90.378906 146.996094 Z M 90.378906 208.035156 C 71.726562 208.035156 56.546875 192.859375 56.546875 174.203125 C 56.546875 155.546875 71.722656 140.375 90.378906 140.375 C 109.035156 140.375 124.210938 155.546875 124.210938 174.203125 C 124.210938 192.859375 109.035156 208.035156 90.378906 208.035156 Z M 90.378906 208.035156 " fill-opacity="1" fill-rule="evenodd"/><path fill="#ffffff" d="M 120.898438 177.515625 L 90.378906 177.515625 C 88.550781 177.515625 87.066406 176.03125 87.066406 174.203125 L 87.070312 143.683594 C 87.070312 141.855469 88.550781 140.375 90.378906 140.375 C 92.207031 140.375 93.6875 141.855469 93.6875 143.683594 L 93.6875 170.894531 L 120.898438 170.894531 C 122.726562 170.894531 124.210938 172.375 124.210938 174.203125 C 124.210938 176.03125 122.726562 177.515625 120.898438 177.515625 Z M 120.898438 177.515625 " fill-opacity="1" fill-rule="evenodd"/><path fill="#ffffff" d="M 120.898438 228.761719 L 59.859375 228.761719 C 58.03125 228.761719 56.546875 227.277344 56.546875 225.449219 C 56.546875 223.621094 58.03125 222.140625 59.859375 222.140625 L 120.898438 222.140625 C 122.730469 222.140625 124.210938 223.621094 124.210938 225.449219 C 124.210938 227.277344 122.730469 228.761719 120.898438 228.761719 Z M 120.898438 228.761719 " fill-opacity="1" fill-rule="evenodd"/><path fill="#ffffff" d="M 120.898438 249.480469 L 59.859375 249.480469 C 58.03125 249.480469 56.546875 247.996094 56.546875 246.167969 C 56.546875 244.339844 58.03125 242.859375 59.859375 242.859375 L 120.898438 242.859375 C 122.730469 242.859375 124.210938 244.339844 124.210938 246.167969 C 124.210938 247.996094 122.730469 249.480469 120.898438 249.480469 Z M 120.898438 249.480469 " fill-opacity="1" fill-rule="evenodd"/><path fill="#ffffff" d="M 120.898438 270.203125 L 59.859375 270.203125 C 58.03125 270.203125 56.546875 268.722656 56.546875 266.894531 C 56.546875 265.066406 58.03125 263.582031 59.859375 263.582031 L 120.898438 263.582031 C 122.730469 263.582031 124.210938 265.066406 124.210938 266.894531 C 124.210938 268.722656 122.730469 270.203125 120.898438 270.203125 Z M 120.898438 270.203125 " fill-opacity="1" fill-rule="evenodd"/><path fill="#ffffff" d="M 120.898438 290.921875 L 59.859375 290.921875 C 58.03125 290.921875 56.546875 289.4375 56.546875 287.613281 C 56.546875 285.785156 58.03125 284.300781 59.859375 284.300781 L 120.898438 284.300781 C 122.730469 284.300781 124.210938 285.785156 124.210938 287.613281 C 124.210938 289.4375 122.730469 290.921875 120.898438 290.921875 Z M 120.898438 290.921875 " fill-opacity="1" fill-rule="evenodd"/><g clip-path="url(#37c1e11f1d)"><path fill="#ffffff" d="M 141.683594 314.488281 C 139.855469 314.488281 138.375 313.007812 138.375 311.179688 L 138.375 120.117188 C 138.375 118.289062 139.855469 116.808594 141.683594 116.808594 C 143.511719 116.808594 144.996094 118.289062 144.996094 120.117188 L 144.996094 311.179688 C 144.996094 313.007812 143.511719 314.488281 141.683594 314.488281 Z M 141.683594 314.488281 " fill-opacity="1" fill-rule="evenodd"/></g><g clip-path="url(#1fb209cacb)"><path fill="#ffffff" d="M 304.914062 314.488281 C 303.085938 314.488281 301.605469 313.007812 301.605469 311.179688 L 301.605469 259.304688 L 286.320312 259.304688 L 286.320312 311.179688 C 286.320312 313.007812 284.835938 314.488281 283.007812 314.488281 C 281.179688 314.488281 279.699219 313.007812 279.699219 311.179688 L 279.699219 255.996094 C 279.699219 254.167969 281.179688 252.683594 283.007812 252.683594 L 304.914062 252.683594 C 306.742188 252.683594 308.226562 254.167969 308.226562 255.996094 L 308.226562 311.179688 C 308.226562 313.007812 306.742188 314.488281 304.914062 314.488281 Z M 304.914062 314.488281 " fill-opacity="1" fill-rule="evenodd"/></g><g clip-path="url(#a27dcfbd71)"><path fill="#ffffff" d="M 268.074219 314.488281 C 266.246094 314.488281 264.761719 313.007812 264.761719 311.179688 L 264.761719 241.113281 L 249.480469 241.113281 L 249.480469 311.179688 C 249.480469 313.007812 247.996094 314.488281 246.167969 314.488281 C 244.339844 314.488281 242.855469 313.007812 242.855469 311.179688 L 242.855469 237.800781 C 242.855469 235.96875 244.339844 234.492188 246.167969 234.492188 L 268.074219 234.492188 C 269.902344 234.492188 271.382812 235.96875 271.382812 237.800781 L 271.382812 311.179688 C 271.382812 313.007812 269.902344 314.488281 268.074219 314.488281 Z M 268.074219 314.488281 " fill-opacity="1" fill-rule="evenodd"/></g><g clip-path="url(#192d1a5046)"><path fill="#ffffff" d="M 231.234375 314.488281 C 229.40625 314.488281 227.921875 313.007812 227.921875 311.179688 L 227.921875 230.1875 L 212.636719 230.1875 L 212.636719 311.179688 C 212.636719 313.007812 211.15625 314.488281 209.328125 314.488281 C 207.5 314.488281 206.015625 313.007812 206.015625 311.179688 L 206.015625 226.875 C 206.015625 225.050781 207.5 223.566406 209.328125 223.566406 L 231.234375 223.566406 C 233.0625 223.566406 234.542969 225.050781 234.542969 226.875 L 234.542969 311.179688 C 234.542969 313.007812 233.0625 314.488281 231.234375 314.488281 Z M 231.234375 314.488281 " fill-opacity="1" fill-rule="evenodd"/></g><g clip-path="url(#469568660f)"><path fill="#ffffff" d="M 194.390625 314.488281 C 192.5625 314.488281 191.082031 313.007812 191.082031 311.179688 L 191.082031 204.710938 L 175.796875 204.710938 L 175.796875 311.179688 C 175.796875 313.007812 174.3125 314.488281 172.484375 314.488281 C 170.65625 314.488281 169.175781 313.007812 169.175781 311.179688 L 169.175781 201.398438 C 169.175781 199.570312 170.65625 198.089844 172.484375 198.089844 L 194.390625 198.089844 C 196.21875 198.089844 197.703125 199.570312 197.703125 201.398438 L 197.703125 311.179688 C 197.703125 313.007812 196.21875 314.488281 194.390625 314.488281 Z M 194.390625 314.488281 " fill-opacity="1" fill-rule="evenodd"/></g><path fill="#ffffff" d="M 315.109375 196.886719 L 223.03125 196.886719 C 221.203125 196.886719 219.71875 195.40625 219.71875 193.578125 C 219.71875 191.75 221.203125 190.265625 223.03125 190.265625 L 315.109375 190.265625 C 316.9375 190.265625 318.421875 191.75 318.421875 193.578125 C 318.421875 195.40625 316.9375 196.886719 315.109375 196.886719 Z M 315.109375 196.886719 " fill-opacity="1" fill-rule="evenodd"/><path fill="#ffffff" d="M 315.109375 172.402344 L 223.03125 172.402344 C 221.203125 172.402344 219.71875 170.921875 219.71875 169.09375 C 219.71875 167.265625 221.203125 165.78125 223.03125 165.78125 L 315.109375 165.78125 C 316.9375 165.78125 318.421875 167.265625 318.421875 169.09375 C 318.421875 170.921875 316.9375 172.402344 315.109375 172.402344 Z M 315.109375 172.402344 " fill-opacity="1" fill-rule="evenodd"/><path fill="#ffffff" d="M 315.109375 147.917969 L 223.03125 147.917969 C 221.203125 147.917969 219.71875 146.4375 219.71875 144.609375 C 219.71875 142.773438 221.203125 141.296875 223.03125 141.296875 L 315.109375 141.296875 C 316.9375 141.296875 318.421875 142.773438 318.421875 144.609375 C 318.421875 146.4375 316.9375 147.917969 315.109375 147.917969 Z M 315.109375 147.917969 " fill-opacity="1" fill-rule="evenodd"/></svg>