<svg xmlns="http://www.w3.org/2000/svg" xmlns:xlink="http://www.w3.org/1999/xlink" width="500" zoomAndPan="magnify" viewBox="0 0 375 374.999991" height="500" preserveAspectRatio="xMidYMid meet" version="1.0"><defs><clipPath id="6698688cbe"><path d="M 27.316406 55 L 347.566406 55 L 347.566406 320 L 27.316406 320 Z M 27.316406 55 " clip-rule="nonzero"/></clipPath></defs><g clip-path="url(#6698688cbe)"><path fill="#ffffff" d="M 199.40625 55.367188 C 197.066406 55.90625 195.351562 57.050781 194.03125 58.953125 C 192.988281 60.457031 192.75 61.269531 192.753906 63.355469 C 192.753906 64.8125 193.0625 66.503906 193.46875 67.285156 L 194.179688 68.65625 L 175.707031 79.671875 C 151.792969 93.929688 154.523438 92.46875 153.511719 91.554688 C 152.371094 90.523438 151.652344 90.597656 150.300781 91.886719 C 149.363281 92.78125 147.964844 93.199219 142.648438 94.167969 C 139.070312 94.820312 134.4375 95.746094 132.355469 96.226562 C 128.40625 97.140625 127.390625 97.09375 127.390625 96 C 127.390625 95.074219 125.273438 92.675781 123.769531 91.898438 C 122.15625 91.066406 118.734375 91.054688 117.160156 91.875 C 114.414062 93.308594 112.585938 96.292969 112.585938 99.34375 C 112.585938 99.984375 113.042969 101.410156 113.605469 102.519531 L 114.625 104.53125 L 105.273438 112.570312 C 93.363281 122.808594 93.992188 122.34375 92.933594 121.679688 C 91.835938 120.996094 89.835938 121.492188 89.503906 122.535156 C 89.234375 123.378906 86.898438 123.628906 60.984375 125.566406 C 56.417969 125.90625 51.335938 126.316406 49.691406 126.476562 L 46.699219 126.765625 L 45.777344 124.964844 C 43.289062 120.089844 37.699219 118.210938 32.855469 120.621094 C 29.429688 122.328125 27.332031 125.746094 27.332031 129.617188 C 27.332031 133.339844 29.402344 136.605469 32.902344 138.402344 C 35.484375 139.730469 40.074219 139.417969 42.234375 137.769531 L 43.804688 136.574219 L 45.382812 137.648438 C 48.707031 139.902344 76.53125 157.257812 89.363281 165.082031 L 97.777344 170.207031 L 97.777344 172.277344 C 97.777344 174.863281 99.136719 177.738281 101.226562 179.574219 C 102.105469 180.34375 102.648438 181.136719 102.429688 181.335938 C 102.214844 181.535156 98.019531 184.839844 93.101562 188.683594 L 84.164062 195.664062 L 82.472656 194.136719 C 78.371094 190.4375 72.5 192.429688 71.472656 197.871094 C 70.535156 202.820312 75.457031 206.835938 80.089844 204.902344 L 81.808594 204.183594 L 90.242188 212.601562 C 94.878906 217.230469 98.675781 221.328125 98.675781 221.707031 C 98.675781 222.890625 99.964844 224.304688 101.3125 224.601562 C 102.890625 224.949219 103 225.488281 103.4375 234.8125 C 103.648438 239.300781 103.597656 241.425781 103.277344 241.425781 C 103.019531 241.425781 102.683594 241.929688 102.527344 242.546875 C 102.375 243.160156 102.046875 243.667969 101.796875 243.667969 C 101.339844 243.667969 87.316406 246.167969 85.160156 246.632812 C 84.140625 246.851562 83.867188 246.660156 83.140625 245.191406 C 81.351562 241.59375 77.054688 240.96875 74.140625 243.882812 C 72.847656 245.171875 72.652344 245.667969 72.652344 247.621094 C 72.652344 250.363281 74.101562 252.371094 76.578125 253.054688 C 79.558594 253.878906 82.179688 252.605469 83.414062 249.734375 L 84.195312 247.90625 L 93.507812 246.246094 C 100.070312 245.078125 103.054688 244.714844 103.628906 245.023438 C 104.078125 245.261719 104.761719 245.335938 105.148438 245.1875 C 105.535156 245.039062 105.855469 245.109375 105.855469 245.34375 C 105.855469 245.582031 108.730469 251.601562 112.246094 258.730469 C 115.765625 265.855469 118.699219 271.808594 118.773438 271.960938 C 118.84375 272.113281 117.890625 272.335938 116.660156 272.457031 C 108.675781 273.222656 106.742188 284.480469 113.960938 288.160156 C 118.332031 290.386719 124.054688 288.003906 125.605469 283.3125 C 125.886719 282.464844 126.1875 281.773438 126.277344 281.773438 C 126.367188 281.773438 131.957031 284.066406 138.695312 286.867188 C 160.191406 295.808594 173.621094 301.351562 181.457031 304.515625 L 189.085938 307.597656 L 189.363281 309.847656 C 190.167969 316.347656 195.480469 320.253906 201.761719 318.960938 C 203.941406 318.511719 204.699219 318.070312 206.644531 316.128906 C 208.554688 314.21875 209.046875 313.390625 209.515625 311.261719 L 210.085938 308.695312 L 213.046875 307.585938 C 214.675781 306.972656 221.558594 304.464844 228.347656 302.007812 C 235.132812 299.554688 245.605469 295.710938 251.617188 293.46875 C 257.628906 291.226562 262.699219 289.394531 262.886719 289.394531 C 263.074219 289.394531 263.746094 290.175781 264.378906 291.132812 C 266.664062 294.585938 272.003906 295.824219 275.664062 293.753906 C 279.8125 291.40625 281.480469 286.203125 279.390625 282.144531 L 278.3125 280.050781 L 285.296875 274.527344 C 289.140625 271.492188 293.703125 267.777344 295.433594 266.273438 L 298.582031 263.542969 L 301.382812 263.746094 L 304.1875 263.949219 L 306.199219 261.9375 C 308.046875 260.089844 308.214844 259.738281 308.214844 257.6875 C 308.214844 254.273438 306.105469 251.753906 302.347656 250.679688 C 301.875 250.546875 300.046875 245.917969 296.835938 236.738281 C 294.191406 229.179688 291.53125 221.871094 290.921875 220.496094 C 289.609375 217.53125 289.628906 217.664062 290.566406 217.664062 C 290.980469 217.664062 291.648438 217.363281 292.054688 217 C 292.710938 216.402344 294.472656 216.890625 308.691406 221.625 C 317.4375 224.539062 325.957031 227.304688 327.625 227.777344 C 330.550781 228.609375 330.65625 228.691406 330.574219 229.988281 C 330.390625 232.855469 330.695312 234.167969 332.007812 236.148438 C 336.726562 243.269531 347.679688 239.75 347.679688 231.113281 C 347.679688 226.167969 344.191406 222.742188 338.433594 222.042969 C 337.875 221.972656 331.78125 216.472656 323.992188 209.003906 L 310.515625 196.082031 L 311.609375 194.03125 C 313.460938 190.546875 312.960938 185.832031 310.460938 183.226562 C 309.46875 182.1875 309.46875 182.179688 310.351562 181.207031 C 310.835938 180.671875 314.214844 175.792969 317.851562 170.367188 C 321.492188 164.945312 324.515625 160.453125 324.574219 160.386719 C 324.632812 160.320312 325.269531 160.570312 325.984375 160.945312 C 329.984375 163.027344 335.085938 159.34375 334.527344 154.773438 C 334.121094 151.4375 331.691406 149.414062 328.007812 149.339844 L 326.039062 149.296875 L 324.292969 143.917969 C 320.828125 133.253906 316.738281 120.109375 316.738281 119.632812 C 316.738281 119.367188 317.316406 119.035156 318.023438 118.894531 C 319.742188 118.550781 322.105469 116.503906 322.859375 114.703125 C 324.152344 111.609375 323.007812 107.492188 320.324219 105.585938 C 318.574219 104.339844 315.0625 103.898438 313.160156 104.6875 C 310.972656 105.59375 308.769531 108.371094 308.425781 110.664062 C 308.261719 111.769531 308.257812 113.082031 308.414062 113.582031 C 308.769531 114.695312 309.265625 114.621094 292.558594 115.953125 C 283.152344 116.699219 280.070312 116.808594 279.4375 116.414062 C 278.117188 115.589844 276.882812 115.8125 276.09375 117.019531 C 275.398438 118.074219 275.125 118.140625 271.394531 118.140625 C 269.21875 118.140625 267.335938 117.976562 267.210938 117.777344 C 267.089844 117.578125 269.558594 113.089844 272.695312 107.804688 C 275.835938 102.515625 279.367188 96.5625 280.539062 94.574219 C 282.46875 91.300781 282.789062 90.96875 283.890625 91.117188 C 285.449219 91.324219 287.769531 89.886719 288.921875 87.996094 C 290.675781 85.121094 289.597656 81.089844 286.648438 79.507812 C 282.4375 77.25 277.707031 80.066406 277.703125 84.832031 L 277.699219 86.535156 L 268.222656 87.984375 C 263.011719 88.78125 258.570312 89.324219 258.351562 89.191406 C 258.136719 89.058594 257.960938 88.558594 257.960938 88.085938 C 257.960938 87.609375 257.371094 86.5625 256.652344 85.757812 C 255.445312 84.410156 255.128906 84.292969 252.621094 84.292969 C 250.148438 84.292969 249.769531 84.425781 248.433594 85.757812 C 247.152344 87.042969 246.96875 87.519531 246.96875 89.570312 C 246.96875 90.859375 247.125 92.347656 247.320312 92.875 C 247.632812 93.734375 247.117188 94.144531 242.160156 96.949219 C 239.128906 98.660156 235.609375 100.683594 234.34375 101.441406 L 232.039062 102.816406 L 221.5625 89.96875 C 215.800781 82.902344 209.792969 75.632812 208.210938 73.8125 C 205.777344 71.019531 205.445312 70.441406 206.0625 70.097656 C 207.550781 69.265625 209.054688 65.953125 209.054688 63.5 C 209.054688 60.867188 208.375 59.285156 206.511719 57.5625 C 204.316406 55.53125 201.914062 54.789062 199.40625 55.367188 Z M 196.183594 70.683594 C 196.5 71.183594 194.453125 77.296875 188.648438 93.222656 C 184.265625 105.242188 180.570312 115.515625 180.4375 116.050781 C 180.304688 116.582031 179.824219 117.5 179.367188 118.089844 C 178.914062 118.679688 178.542969 119.738281 178.542969 120.441406 C 178.542969 121.964844 178.179688 122.019531 175.851562 120.832031 C 173.3125 119.539062 169.691406 119.628906 166.875 121.054688 C 165.660156 121.671875 164.585938 122.175781 164.492188 122.175781 C 164.300781 122.175781 160.75 114.671875 157.917969 108.277344 C 156.878906 105.9375 155.136719 102.136719 154.050781 99.832031 C 152.960938 97.53125 152.070312 95.5625 152.070312 95.460938 C 152.070312 95.359375 152.414062 95.277344 152.835938 95.277344 C 153.261719 95.277344 154.019531 94.792969 154.519531 94.203125 C 155.195312 93.40625 186.664062 74.328125 194.023438 70.25 C 195.089844 69.660156 195.601562 69.761719 196.183594 70.683594 Z M 217.03125 86.480469 C 228.601562 100.5 230.800781 103.289062 230.5 103.585938 C 230.382812 103.703125 224.859375 106.902344 218.226562 110.695312 C 206.734375 117.265625 206.125 117.558594 205.144531 116.917969 C 204.226562 116.316406 204 116.320312 202.996094 116.980469 C 201.824219 117.746094 201.503906 119.382812 202.359375 120.242188 C 202.710938 120.589844 202.425781 121.28125 201.351562 122.695312 C 200.527344 123.777344 199.535156 125.152344 199.144531 125.746094 L 198.433594 126.832031 L 191.292969 123.558594 C 182.105469 119.34375 181.125 118.714844 181.410156 117.207031 C 181.589844 116.265625 193.328125 83.65625 196.914062 74.140625 L 197.867188 71.605469 L 199.535156 71.828125 C 200.449219 71.953125 201.90625 71.859375 202.773438 71.628906 C 204.238281 71.234375 204.429688 71.308594 205.6875 72.785156 C 206.429688 73.65625 211.53125 79.820312 217.03125 86.480469 Z M 278.980469 88.925781 C 279.636719 89.625 280.46875 90.296875 280.832031 90.417969 C 281.34375 90.589844 280.929688 91.597656 278.996094 94.863281 C 277.621094 97.1875 274.339844 102.742188 271.703125 107.203125 C 268.347656 112.886719 266.375 115.75 265.125 116.753906 C 263.347656 118.183594 263.335938 118.183594 260.660156 117.65625 C 259.183594 117.367188 257.695312 116.902344 257.351562 116.625 C 256.9375 116.296875 256.3125 113.0625 255.515625 107.15625 C 254.851562 102.226562 254.207031 97.582031 254.085938 96.832031 C 253.886719 95.632812 254.039062 95.386719 255.417969 94.730469 C 256.445312 94.242188 257.234375 93.402344 257.738281 92.257812 L 258.503906 90.523438 L 264.175781 89.695312 C 267.296875 89.238281 271.265625 88.617188 272.992188 88.308594 C 277.507812 87.511719 277.671875 87.527344 278.980469 88.925781 Z M 150.367188 95.460938 C 150.785156 96.039062 153.160156 100.980469 155.640625 106.445312 C 158.121094 111.90625 160.957031 117.976562 161.941406 119.9375 L 163.734375 123.5 L 162.839844 124.96875 C 162.347656 125.773438 161.941406 126.871094 161.941406 127.402344 C 161.941406 128.300781 161.828125 128.332031 160.371094 127.886719 C 159.351562 127.574219 158.800781 127.128906 158.800781 126.617188 C 158.800781 125.566406 157.527344 124.335938 156.617188 124.511719 C 156.171875 124.597656 154.710938 123.335938 152.875 121.285156 C 149.867188 117.921875 149.863281 117.917969 150.832031 117.175781 C 151.667969 116.535156 151.730469 116.273438 151.292969 115.308594 C 150.957031 114.582031 150.261719 114.078125 149.292969 113.871094 C 148.476562 113.699219 145.585938 112.191406 142.871094 110.523438 C 140.15625 108.855469 135.664062 106.136719 132.886719 104.480469 C 128.070312 101.605469 127.839844 101.398438 127.839844 99.972656 L 127.839844 98.480469 L 131.992188 97.546875 C 139.136719 95.9375 146.851562 94.464844 148.253906 94.433594 C 149.171875 94.417969 149.847656 94.746094 150.367188 95.460938 Z M 250.925781 95.171875 C 252.375 95.421875 252.765625 96.207031 253.195312 99.761719 C 253.363281 101.117188 253.914062 105.210938 254.425781 108.859375 C 255.285156 115.023438 255.300781 115.601562 254.632812 117.007812 C 253.972656 118.390625 253.6875 118.554688 251.390625 118.839844 C 250.003906 119.015625 248.121094 119.175781 247.210938 119.199219 C 245.355469 119.246094 245.070312 118.984375 239.339844 111.878906 C 237.613281 109.734375 235.394531 107.011719 234.410156 105.824219 C 232.933594 104.042969 232.734375 103.59375 233.285156 103.261719 C 241.765625 98.164062 248.457031 94.523438 248.988281 94.714844 C 249.355469 94.847656 250.230469 95.054688 250.925781 95.171875 Z M 133.078125 106.007812 C 147.820312 115.117188 147.582031 114.945312 147.582031 116.488281 C 147.582031 117.652344 148.214844 118.535156 151.230469 121.5625 C 154.265625 124.609375 154.835938 125.40625 154.609375 126.28125 C 154.464844 126.859375 152.679688 128.742188 150.644531 130.46875 C 148.613281 132.195312 144.296875 135.925781 141.058594 138.761719 C 119.617188 157.539062 114.207031 162.085938 113.339844 162.058594 C 113.046875 162.050781 112.304688 161.753906 111.6875 161.402344 C 111.070312 161.050781 110.003906 160.753906 109.324219 160.746094 C 108.222656 160.730469 108.113281 160.601562 108.363281 159.605469 C 108.519531 158.984375 111.113281 146.933594 114.128906 132.820312 L 119.613281 107.15625 L 121.648438 106.648438 C 124.160156 106.015625 125.710938 105.027344 126.496094 103.566406 C 126.824219 102.953125 127.144531 102.449219 127.210938 102.449219 C 127.273438 102.449219 129.914062 104.050781 133.078125 106.007812 Z M 232.011719 104.65625 C 232.152344 105.042969 239.089844 113.617188 242.800781 117.988281 C 243.8125 119.183594 244.363281 120.21875 244.199219 120.640625 C 244.046875 121.042969 244.40625 121.835938 245.058594 122.539062 C 246.535156 124.117188 247.191406 125.445312 247.191406 126.832031 C 247.191406 127.761719 246.269531 128.601562 241.921875 131.652344 C 232.078125 138.546875 232.367188 138.382812 230.890625 138.058594 C 228.125 137.453125 202.195312 129.304688 200.902344 128.636719 C 200.046875 128.195312 199.648438 127.707031 199.808594 127.292969 C 200.445312 125.632812 203.847656 121.179688 204.816406 120.738281 C 205.410156 120.46875 206.011719 119.878906 206.15625 119.429688 C 206.308594 118.945312 210.859375 116.097656 217.269531 112.46875 C 223.238281 109.089844 228.824219 105.855469 229.683594 105.285156 C 231.398438 104.140625 231.785156 104.039062 232.011719 104.65625 Z M 118.300781 106.6875 C 118.363281 106.738281 116.886719 113.925781 115.023438 122.660156 C 113.160156 131.390625 110.589844 143.527344 109.304688 149.625 C 108.023438 155.726562 106.75 160.800781 106.46875 160.910156 C 105.941406 161.117188 103.917969 155.859375 97.15625 136.675781 C 93.753906 127.03125 93.394531 125.71875 93.875 124.667969 C 94.167969 124.019531 98.859375 119.691406 104.292969 115.046875 C 109.726562 110.402344 114.441406 106.277344 114.769531 105.882812 C 115.316406 105.222656 115.484375 105.222656 116.78125 105.882812 C 117.558594 106.277344 118.242188 106.640625 118.300781 106.6875 Z M 308.648438 116.515625 C 307.871094 117.246094 292.695312 126.953125 289.910156 128.5 L 287.984375 129.574219 L 286.601562 128.003906 C 285.84375 127.140625 283.796875 124.84375 282.050781 122.902344 C 277.640625 117.984375 276.96875 118.300781 294.53125 116.972656 C 299.710938 116.582031 304.035156 116.179688 304.140625 116.082031 C 304.242188 115.980469 305.445312 115.898438 306.816406 115.898438 C 308.945312 115.898438 309.210938 115.988281 308.648438 116.515625 Z M 308.363281 118.703125 C 307.863281 119.257812 304.863281 122.726562 301.695312 126.414062 C 298.304688 130.355469 295.28125 133.449219 294.351562 133.921875 L 292.769531 134.726562 L 290.84375 132.84375 C 289.785156 131.804688 288.921875 130.84375 288.921875 130.710938 C 288.921875 130.578125 289.78125 130.011719 290.828125 129.457031 C 291.875 128.898438 296.371094 126.039062 300.8125 123.105469 C 305.253906 120.171875 308.972656 117.753906 309.078125 117.730469 C 309.183594 117.710938 308.859375 118.148438 308.363281 118.703125 Z M 312.257812 118.59375 C 312.722656 118.839844 313.589844 119.082031 314.1875 119.132812 C 315.183594 119.214844 315.46875 119.875 317.851562 127.535156 C 319.273438 132.109375 321.441406 139.074219 322.667969 143.019531 C 323.976562 147.226562 324.742188 150.398438 324.519531 150.691406 C 322.800781 152.96875 322.5 153.703125 322.5 155.574219 C 322.5 156.707031 322.804688 158.101562 323.175781 158.667969 C 323.8125 159.640625 323.753906 159.839844 322.269531 161.898438 C 321.398438 163.105469 318.078125 167.976562 314.890625 172.722656 C 311.707031 177.46875 309 181.351562 308.878906 181.351562 C 308.757812 181.351562 307.90625 180.949219 306.984375 180.457031 C 304.753906 179.261719 300.714844 179.246094 298.402344 180.425781 L 296.703125 181.292969 L 288.242188 172.828125 C 279.855469 164.4375 279.785156 164.355469 280.34375 163.109375 C 280.652344 162.417969 283.871094 156.558594 287.492188 150.089844 C 293.585938 139.207031 294.171875 138.328125 295.304688 138.320312 C 297.015625 138.3125 298.21875 136.46875 297.515625 134.925781 C 297.101562 134.019531 297.152344 133.667969 297.789062 133 C 298.21875 132.550781 301.265625 129.019531 304.5625 125.160156 C 307.859375 121.300781 310.75 118.140625 310.988281 118.140625 C 311.222656 118.140625 311.792969 118.34375 312.257812 118.59375 Z M 264.070312 119.613281 C 264.332031 119.875 260.527344 135.5 260.117188 135.835938 C 260.042969 135.898438 259.117188 136.058594 258.0625 136.195312 C 256.261719 136.425781 256.101562 136.351562 255.429688 135.023438 C 255.039062 134.246094 253.929688 132.558594 252.972656 131.273438 C 251.867188 129.792969 251.230469 128.453125 251.230469 127.609375 C 251.230469 126.578125 250.882812 126.070312 249.652344 125.308594 C 247.921875 124.242188 247.191406 123.183594 247.191406 121.742188 C 247.191406 120.539062 247.460938 120.449219 253.304688 119.714844 C 258.242188 119.09375 263.5 119.042969 264.070312 119.613281 Z M 277.757812 120.273438 C 278.832031 120.984375 286.675781 129.882812 286.675781 130.386719 C 286.675781 130.6875 269.175781 142.0625 269.035156 141.851562 C 267.402344 139.421875 266.003906 138.085938 264.101562 137.132812 C 262.824219 136.492188 261.714844 135.914062 261.640625 135.847656 C 261.566406 135.78125 262.355469 132.527344 263.394531 128.617188 C 265.8125 119.507812 265.828125 119.488281 272.09375 119.492188 C 275.609375 119.492188 276.835938 119.660156 277.757812 120.273438 Z M 190.328125 124.433594 L 196.46875 127.203125 L 196.355469 128.882812 C 196.265625 130.257812 195.671875 131.191406 193.046875 134.085938 L 189.847656 137.609375 L 185.652344 136.550781 C 183.347656 135.96875 181.320312 135.371094 181.152344 135.222656 C 180.984375 135.074219 181.132812 133.867188 181.480469 132.542969 C 182.21875 129.714844 181.761719 126.757812 180.269531 124.699219 L 179.335938 123.414062 L 180.621094 122.34375 C 182.296875 120.949219 182.859375 121.070312 190.328125 124.433594 Z M 89.390625 125.027344 C 89.519531 125.359375 90.195312 125.753906 90.894531 125.902344 C 92.117188 126.15625 92.34375 126.664062 96.371094 138.179688 C 98.683594 144.789062 101.488281 152.605469 102.609375 155.546875 L 104.648438 160.898438 L 103.585938 161.597656 C 101.164062 163.199219 99.839844 164.621094 98.902344 166.636719 L 97.914062 168.769531 L 94.144531 166.476562 C 85.203125 161.039062 49.273438 138.609375 46.738281 136.882812 L 44.835938 135.582031 L 45.753906 133.785156 C 46.257812 132.792969 46.710938 131.09375 46.761719 130.007812 C 46.867188 127.632812 44.777344 128.035156 65.472656 126.4375 C 79.234375 125.378906 88.132812 124.632812 88.867188 124.476562 C 89.027344 124.445312 89.261719 124.691406 89.390625 125.027344 Z M 159.726562 128.910156 C 161.28125 129.328125 161.394531 129.480469 161.667969 131.558594 C 161.859375 132.996094 162.503906 134.550781 163.523438 136.027344 L 165.082031 138.292969 L 164.070312 138.925781 C 163.515625 139.273438 153.898438 145.039062 142.695312 151.742188 C 131.496094 158.445312 121.304688 164.617188 120.050781 165.460938 C 117.988281 166.847656 117.734375 166.921875 117.363281 166.214844 C 117.136719 165.789062 116.421875 164.867188 115.777344 164.171875 C 114.6875 163 114.660156 162.878906 115.40625 162.460938 C 116.183594 162.023438 124.214844 155.148438 141.304688 140.289062 C 145.867188 136.320312 150.914062 131.9375 152.519531 130.546875 C 155.636719 127.847656 155.71875 127.828125 159.726562 128.910156 Z M 252.613281 133.203125 L 255.148438 136.835938 L 253.125 138.359375 C 251.578125 139.523438 249.484375 142.296875 249.1875 143.566406 C 249.171875 143.640625 239.628906 140.8125 233.980469 139.058594 C 233.746094 138.988281 236.671875 136.777344 240.484375 134.144531 C 249.175781 128.148438 249.085938 128.15625 252.613281 133.203125 Z M 210.355469 133.199219 C 215.683594 134.824219 222.519531 136.902344 225.542969 137.820312 L 231.039062 139.484375 L 226.867188 142.246094 C 223.753906 144.300781 222.433594 144.933594 221.675781 144.734375 C 221.117188 144.589844 220.167969 144.734375 219.566406 145.054688 C 218.597656 145.574219 217.070312 145.25 205.800781 142.132812 C 198.828125 140.203125 192.648438 138.449219 192.0625 138.238281 C 191.007812 137.851562 191.011719 137.835938 192.996094 135.71875 C 194.09375 134.542969 195.351562 133.035156 195.792969 132.363281 C 196.246094 131.671875 197.007812 131.136719 197.550781 131.136719 C 198.078125 131.132812 198.8125 130.933594 199.183594 130.695312 C 199.550781 130.453125 200.035156 130.257812 200.257812 130.253906 C 200.480469 130.25 205.023438 131.574219 210.355469 133.199219 Z M 290.839844 134.339844 C 292.273438 135.851562 293.386719 137.226562 293.3125 137.390625 C 293.242188 137.558594 289.957031 143.382812 286.015625 150.335938 L 278.847656 162.976562 L 274.652344 158.828125 C 272.347656 156.546875 270.054688 154.121094 269.558594 153.4375 C 268.6875 152.242188 268.683594 152.136719 269.429688 150.183594 C 269.984375 148.738281 270.128906 147.464844 269.941406 145.667969 L 269.683594 143.167969 L 278.515625 137.378906 C 283.375 134.195312 287.550781 131.59375 287.796875 131.589844 C 288.039062 131.589844 289.410156 132.828125 290.839844 134.339844 Z M 184.347656 137.460938 C 186.210938 137.976562 187.890625 138.542969 188.078125 138.71875 C 188.425781 139.042969 183.628906 144.589844 183 144.589844 C 182.804688 144.589844 181.628906 143.132812 180.390625 141.355469 C 178.292969 138.339844 178.183594 138.058594 178.855469 137.320312 C 179.773438 136.304688 180.21875 136.316406 184.347656 137.460938 Z M 167.527344 139.730469 C 168.15625 140.019531 168.667969 140.371094 168.667969 140.515625 C 168.667969 140.660156 168.070312 144.917969 167.347656 149.96875 C 165.855469 160.359375 165.011719 164.058594 163.8125 165.402344 C 163.359375 165.914062 161.757812 168.046875 160.253906 170.144531 C 158.753906 172.242188 157.253906 174.316406 156.921875 174.753906 C 156.347656 175.519531 155.695312 175.496094 141.96875 174.175781 C 134.074219 173.417969 125.753906 172.617188 123.480469 172.402344 C 121.203125 172.183594 119.136719 171.878906 118.878906 171.722656 C 118.625 171.566406 118.417969 170.65625 118.417969 169.707031 L 118.417969 167.972656 L 125.035156 163.902344 C 137.308594 156.355469 165.75 139.253906 166.070312 139.230469 C 166.242188 139.222656 166.898438 139.445312 167.527344 139.730469 Z M 179.234375 142.175781 C 180.398438 143.804688 181.375 145.378906 181.40625 145.675781 C 181.476562 146.398438 168.6875 159.832031 167.925781 159.832031 C 167.160156 159.832031 167.105469 160.558594 168.671875 149.746094 C 169.410156 144.632812 170.015625 140.417969 170.015625 140.375 C 170.015625 140.335938 171.046875 140.257812 172.304688 140.203125 C 173.5625 140.148438 174.925781 139.910156 175.332031 139.671875 C 176.660156 138.894531 177.085938 139.171875 179.234375 142.175781 Z M 204.566406 143.09375 C 212.339844 145.238281 218.757812 147.03125 218.828125 147.078125 C 218.894531 147.121094 216.960938 150.261719 214.523438 154.054688 C 212.085938 157.851562 208.953125 162.863281 207.5625 165.195312 L 205.03125 169.4375 L 199.8125 169.507812 L 193.550781 160.320312 C 190.109375 155.269531 186.414062 149.960938 185.339844 148.523438 L 183.386719 145.914062 L 186.460938 142.601562 C 188.152344 140.777344 189.738281 139.265625 189.984375 139.242188 C 190.230469 139.214844 196.792969 140.949219 204.566406 143.09375 Z M 240.75 142.453125 L 248.890625 144.816406 L 249.070312 147.566406 C 249.199219 149.585938 249.5625 150.792969 250.441406 152.117188 L 251.632812 153.917969 L 249.078125 156.289062 C 247.671875 157.589844 243.390625 161.613281 239.566406 165.226562 C 235.472656 169.085938 232.09375 171.917969 231.359375 172.101562 C 229.765625 172.496094 228.839844 174.320312 229.605469 175.550781 C 230.460938 176.917969 230.238281 177.675781 228.910156 177.929688 C 228.230469 178.058594 223.914062 178.296875 219.320312 178.460938 L 210.964844 178.753906 L 210.644531 177.046875 C 210.296875 175.191406 208.785156 171.945312 208.257812 171.921875 C 208.078125 171.914062 207.472656 171.527344 206.914062 171.058594 L 205.890625 170.210938 L 208.671875 165.582031 C 212.378906 159.417969 218.421875 149.925781 219.210938 149.027344 C 219.578125 148.609375 220.277344 148.390625 220.871094 148.503906 C 221.929688 148.703125 222.75 148.046875 223.027344 146.769531 C 223.175781 146.082031 231.171875 140.289062 232.160156 140.152344 C 232.40625 140.117188 236.273438 141.152344 240.75 142.453125 Z M 191.332031 159.507812 C 195.15625 165.121094 198.285156 169.816406 198.285156 169.941406 C 198.285156 170.070312 197.566406 170.800781 196.691406 171.570312 C 194.832031 173.203125 193.796875 175.011719 193.796875 176.636719 C 193.796875 177.273438 193.515625 177.902344 193.171875 178.035156 C 192.828125 178.164062 188.335938 177.957031 183.1875 177.570312 C 178.042969 177.1875 170.5 176.644531 166.425781 176.367188 C 162.355469 176.09375 158.851562 175.710938 158.644531 175.519531 C 158.433594 175.328125 159.632812 173.28125 161.304688 170.976562 C 162.976562 168.667969 164.761719 166.136719 165.273438 165.34375 C 165.921875 164.339844 166.558594 163.902344 167.382812 163.886719 C 168.839844 163.863281 169.65625 162.941406 169.480469 161.523438 C 169.371094 160.667969 170.675781 159.058594 175.851562 153.65625 L 182.355469 146.867188 L 183.367188 148.082031 C 183.921875 148.75 187.503906 153.890625 191.332031 159.507812 Z M 274.105469 171.519531 C 271.847656 175.570312 269.851562 179.046875 269.664062 179.238281 C 269.0625 179.867188 263.003906 177.324219 262.210938 176.113281 C 261.679688 175.304688 261.210938 175.0625 260.503906 175.242188 L 259.53125 175.488281 L 259.816406 169.117188 C 259.976562 165.613281 260.125 161.488281 260.152344 159.945312 C 260.195312 157.597656 260.332031 157.144531 260.988281 157.140625 C 262.125 157.132812 266.148438 155.179688 266.902344 154.269531 C 267.488281 153.5625 267.992188 153.945312 272.875 158.824219 L 278.207031 164.152344 Z M 254.640625 156.023438 C 255.800781 156.640625 257.25 157.144531 257.863281 157.144531 L 258.976562 157.144531 L 258.648438 166.894531 C 258.46875 172.257812 258.289062 176.679688 258.25 176.722656 C 258.089844 176.898438 239.113281 177.765625 235.433594 177.765625 C 233.265625 177.765625 231.488281 177.585938 231.488281 177.367188 C 231.488281 177.148438 232.015625 176.628906 232.65625 176.207031 C 233.605469 175.585938 233.777344 175.199219 233.570312 174.160156 C 233.332031 172.964844 233.972656 172.257812 242.832031 163.894531 C 248.066406 158.953125 252.390625 154.910156 252.441406 154.90625 C 252.488281 154.902344 253.480469 155.40625 254.640625 156.023438 Z M 288.246094 174.636719 L 295.570312 182.046875 L 294.265625 183.796875 C 293.546875 184.757812 292.960938 185.914062 292.960938 186.363281 C 292.960938 186.8125 292.796875 187.179688 292.597656 187.179688 C 292.214844 187.179688 271.308594 180.042969 271.109375 179.84375 C 270.988281 179.722656 277.292969 168.007812 278.484375 166.140625 L 279.179688 165.050781 L 280.050781 166.140625 C 280.53125 166.738281 284.21875 170.5625 288.246094 174.636719 Z M 137.261719 174.828125 C 157.140625 176.628906 155.210938 176.339844 155.210938 177.539062 C 155.210938 178.40625 153.464844 181.253906 145.496094 193.390625 C 145.4375 193.480469 140.683594 190.976562 134.933594 187.828125 C 129.179688 184.679688 122.757812 181.195312 120.660156 180.085938 C 118.5625 178.976562 116.777344 178.015625 116.695312 177.953125 C 116.613281 177.890625 117.015625 176.789062 117.59375 175.511719 L 118.640625 173.183594 L 121.78125 173.445312 C 123.507812 173.589844 130.476562 174.210938 137.261719 174.828125 Z M 176.441406 178.21875 C 183.304688 178.710938 189.910156 179.109375 191.113281 179.109375 C 193.292969 179.109375 193.3125 179.121094 194.234375 181.207031 C 194.746094 182.359375 195.007812 183.441406 194.816406 183.605469 C 194.496094 183.882812 164.726562 200.761719 162.523438 201.914062 C 161.660156 202.367188 160.609375 201.925781 154 198.335938 C 149.851562 196.085938 146.417969 194.207031 146.363281 194.164062 C 146.308594 194.117188 148.386719 190.867188 150.984375 186.933594 C 155.242188 180.480469 155.816406 179.792969 156.894531 179.878906 C 158.300781 179.996094 159.695312 178.886719 159.695312 177.652344 C 159.695312 176.878906 159.925781 176.8125 161.828125 177.058594 C 163 177.207031 169.578125 177.730469 176.441406 178.21875 Z M 257.960938 184.199219 C 257.960938 187.492188 257.832031 191.425781 257.671875 192.941406 C 257.394531 195.609375 257.34375 195.699219 256.097656 195.699219 C 255.390625 195.699219 253.867188 196.140625 252.714844 196.683594 L 250.617188 197.667969 L 241.964844 188.726562 C 237.203125 183.808594 233.304688 179.632812 233.296875 179.445312 C 233.289062 179.261719 234.542969 179.082031 236.085938 179.050781 C 237.628906 179.019531 242.019531 178.851562 245.847656 178.683594 C 249.671875 178.511719 253.960938 178.339844 255.382812 178.292969 L 257.960938 178.214844 Z M 266.148438 179.757812 C 267.570312 180.230469 268.730469 180.785156 268.730469 180.988281 C 268.730469 181.191406 267.445312 183.625 265.871094 186.398438 C 264.300781 189.171875 262.480469 192.496094 261.828125 193.792969 C 260.953125 195.523438 260.386719 196.144531 259.683594 196.144531 C 258.765625 196.144531 258.738281 196.007812 259.015625 192.714844 C 259.175781 190.828125 259.308594 187.015625 259.308594 184.242188 C 259.308594 179.488281 259.355469 179.207031 260.167969 179.417969 C 260.640625 179.542969 261.398438 179.425781 261.851562 179.160156 C 262.78125 178.613281 262.660156 178.597656 266.148438 179.757812 Z M 125.074219 183.976562 C 129.925781 186.65625 136.277344 190.121094 139.1875 191.683594 C 142.09375 193.242188 144.390625 194.734375 144.289062 195 C 144.1875 195.265625 142.351562 198.152344 140.214844 201.417969 L 136.324219 207.355469 L 135.023438 206.683594 C 134.304688 206.3125 132.546875 206.003906 131.113281 205.996094 L 128.511719 205.988281 L 126.324219 202.300781 C 125.121094 200.269531 122.109375 195.082031 119.636719 190.765625 C 117.164062 186.453125 114.75 182.359375 114.269531 181.671875 C 113.570312 180.671875 113.507812 180.292969 113.941406 179.765625 C 114.242188 179.40625 114.886719 179.109375 115.371094 179.109375 C 115.855469 179.109375 120.222656 181.300781 125.074219 183.976562 Z M 229.246094 179.5 C 229.246094 179.71875 228.871094 180.777344 228.414062 181.855469 C 227.957031 182.933594 226.417969 186.792969 225 190.429688 C 223.578125 194.066406 222.300781 197.042969 222.164062 197.042969 C 222.023438 197.042969 218.214844 194.570312 213.699219 191.550781 C 206.90625 187.007812 205.621094 185.980469 206.257812 185.609375 C 207.671875 184.785156 209.945312 182.199219 210.222656 181.097656 C 210.464844 180.128906 210.757812 180 212.804688 179.949219 C 216.175781 179.863281 228.515625 179.28125 228.910156 179.191406 C 229.09375 179.144531 229.246094 179.285156 229.246094 179.5 Z M 240.460938 188.976562 L 249.660156 198.394531 L 248.453125 200.234375 C 247.789062 201.242188 247.152344 202.164062 247.035156 202.277344 C 246.921875 202.394531 242.34375 201.71875 236.863281 200.78125 C 227.65625 199.203125 226.871094 198.996094 226.507812 198.050781 C 226.265625 197.40625 225.609375 196.921875 224.757812 196.75 C 223.835938 196.566406 223.527344 196.316406 223.796875 195.976562 C 224.015625 195.699219 225.566406 191.894531 227.238281 187.515625 C 228.914062 183.140625 230.503906 179.558594 230.773438 179.558594 C 231.042969 179.558594 235.402344 183.796875 240.460938 188.976562 Z M 113.828125 183.480469 C 114.566406 184.652344 117.433594 189.542969 120.203125 194.351562 C 122.96875 199.160156 125.722656 203.851562 126.320312 204.777344 L 127.40625 206.457031 L 125.425781 208.363281 C 123.574219 210.144531 122.464844 212.488281 122.457031 214.636719 C 122.457031 215.070312 122.34375 215.421875 122.207031 215.421875 C 122.074219 215.421875 118.285156 213.890625 113.796875 212.015625 C 109.304688 210.140625 105.355469 208.5 105.015625 208.363281 C 104.5625 208.179688 104.476562 207.582031 104.691406 206.054688 C 104.847656 204.917969 105.386719 199.15625 105.886719 193.246094 C 106.386719 187.339844 106.859375 182.441406 106.9375 182.363281 C 107.105469 182.191406 110.726562 181.46875 111.753906 181.402344 C 112.175781 181.371094 113.058594 182.257812 113.828125 183.480469 Z M 281.742188 184.863281 L 292.285156 188.339844 L 292.421875 189.921875 L 292.554688 191.503906 L 279.726562 196.796875 C 272.671875 199.707031 266.851562 202.011719 266.789062 201.917969 C 266.722656 201.828125 266.175781 200.996094 265.570312 200.078125 C 264.964844 199.160156 263.8125 198.054688 263.007812 197.625 C 262.207031 197.191406 261.550781 196.78125 261.550781 196.714844 C 261.550781 196.578125 267.257812 186.339844 269.050781 183.257812 C 269.660156 182.210938 270.394531 181.359375 270.679688 181.367188 C 270.964844 181.375 275.941406 182.949219 281.742188 184.863281 Z M 105.40625 183.714844 C 105.40625 185.613281 104.34375 199.648438 103.800781 204.945312 L 103.515625 207.691406 L 94.03125 203.601562 C 81.90625 198.371094 82.101562 198.875 89.90625 192.828125 C 93.003906 190.425781 97.382812 186.960938 99.640625 185.128906 C 104.507812 181.183594 105.40625 180.960938 105.40625 183.714844 Z M 197.265625 185.171875 C 198.167969 185.804688 198.195312 185.976562 197.664062 187.527344 C 197.347656 188.445312 196.523438 191.347656 195.835938 193.972656 C 194.667969 198.414062 194.496094 198.761719 193.351562 198.992188 C 192.59375 199.144531 191.773438 199.808594 191.226562 200.71875 C 190.546875 201.84375 188.734375 203.074219 183.652344 205.847656 C 179.980469 207.855469 176.511719 209.636719 175.953125 209.804688 C 174.925781 210.113281 173.546875 209.460938 165.839844 205.011719 L 162.78125 203.246094 L 171 198.613281 C 175.519531 196.066406 182.949219 191.851562 187.515625 189.25 C 192.082031 186.648438 195.921875 184.511719 196.054688 184.503906 C 196.183594 184.496094 196.730469 184.796875 197.265625 185.171875 Z M 213.203125 192.480469 C 218.035156 195.707031 221.617188 198.394531 221.617188 198.789062 C 221.617188 199.53125 214.671875 220.136719 214.046875 221.246094 C 213.699219 221.867188 201.867188 228.71875 195.144531 232.195312 L 192.226562 233.703125 L 190.261719 231.960938 C 189.183594 231 188.019531 230.21875 187.683594 230.21875 C 187.34375 230.21875 187.066406 229.980469 187.066406 229.691406 C 187.066406 228.496094 193.925781 204.816406 194.511719 203.992188 C 194.863281 203.496094 195.457031 202.664062 195.835938 202.140625 C 196.382812 201.378906 196.417969 200.960938 196.007812 200.058594 C 195.574219 199.113281 195.753906 198.023438 197.113281 193.375 C 198.003906 190.324219 198.734375 187.5 198.734375 187.105469 C 198.734375 186.492188 199.183594 186.421875 201.761719 186.621094 C 204.757812 186.855469 204.878906 186.917969 213.203125 192.480469 Z M 295.558594 197.15625 C 296.199219 197.835938 297.390625 198.632812 298.210938 198.929688 C 299.03125 199.226562 299.648438 199.578125 299.585938 199.714844 C 299.519531 199.847656 297.679688 202.933594 295.496094 206.570312 C 292.410156 211.707031 291.316406 213.183594 290.589844 213.183594 C 290.074219 213.183594 289.234375 213.5625 288.726562 214.027344 C 287.8125 214.863281 287.648438 214.835938 277.703125 212.1875 L 267.609375 209.5 L 267.574219 206.292969 L 267.535156 203.089844 L 272.957031 200.925781 C 275.9375 199.734375 281.605469 197.410156 285.554688 195.757812 L 292.730469 192.757812 L 293.5625 194.339844 C 294.023438 195.210938 294.921875 196.476562 295.558594 197.15625 Z M 153.640625 199.636719 C 160.464844 203.285156 160.585938 203.363281 159.914062 203.605469 C 159.660156 203.699219 155.226562 206.179688 150.054688 209.121094 L 140.65625 214.472656 L 140.144531 212.460938 C 139.863281 211.355469 139.085938 209.878906 138.414062 209.179688 L 137.195312 207.910156 L 141.308594 201.585938 C 145.160156 195.660156 145.484375 195.292969 146.390625 195.769531 C 146.921875 196.050781 150.183594 197.789062 153.640625 199.636719 Z M 331.097656 217.582031 C 334.734375 221.175781 336.058594 222.75 335.585938 222.921875 C 335.214844 223.054688 333.964844 224.128906 332.808594 225.3125 L 330.707031 227.464844 L 311.992188 221.328125 C 301.527344 217.898438 293.097656 214.898438 292.867188 214.523438 C 292.5625 214.035156 293.574219 211.964844 296.632812 206.8125 L 300.8125 199.769531 L 303.117188 199.75 C 304.957031 199.734375 305.855469 199.4375 307.578125 198.273438 L 309.730469 196.816406 L 317.835938 204.652344 C 322.292969 208.960938 328.261719 214.777344 331.097656 217.582031 Z M 240.222656 202.535156 L 246.492188 203.566406 L 246.503906 206.625 L 246.519531 209.683594 L 241.808594 211.488281 C 239.214844 212.480469 232.9375 214.847656 227.855469 216.746094 L 218.613281 220.199219 L 217.46875 219.269531 L 216.324219 218.335938 L 219.308594 209.484375 L 222.289062 200.632812 L 223.710938 200.898438 C 224.492188 201.042969 225.472656 200.972656 225.886719 200.742188 C 226.652344 200.3125 227.011719 200.359375 240.222656 202.535156 Z M 103.277344 209.089844 C 103.570312 209.378906 103.175781 213.871094 102.449219 218.472656 C 102.230469 219.851562 102.105469 219.945312 100.691406 219.820312 C 99.386719 219.703125 97.984375 218.511719 91.03125 211.628906 L 82.898438 203.574219 L 83.578125 202.144531 L 84.257812 200.71875 L 93.597656 204.738281 C 98.734375 206.949219 103.089844 208.90625 103.277344 209.089844 Z M 193.242188 203.429688 C 193.132812 203.738281 191.464844 209.640625 189.535156 216.542969 C 187.605469 223.449219 185.90625 229.230469 185.761719 229.390625 C 185.617188 229.554688 184.390625 229.757812 183.035156 229.839844 L 180.578125 229.992188 L 178.96875 222.050781 L 177.363281 214.113281 L 178.28125 213.195312 C 179.054688 212.417969 179.113281 212.136719 178.648438 211.390625 C 177.984375 210.332031 177.957031 210.042969 178.507812 210.042969 C 178.738281 210.042969 181.714844 208.441406 185.125 206.480469 C 190.9375 203.140625 193.722656 202.09375 193.242188 203.429688 Z M 168.382812 208 C 172.179688 210.140625 174.503906 211.71875 174.503906 212.15625 C 174.503906 212.542969 174.824219 213.089844 175.210938 213.375 C 175.683594 213.71875 176.503906 216.753906 177.660156 222.390625 L 179.398438 230.886719 L 178.039062 232.289062 C 177.292969 233.058594 176.414062 234.46875 176.085938 235.417969 L 175.492188 237.144531 L 165.914062 239.488281 C 156.074219 241.894531 154.3125 242.1875 154.3125 241.441406 C 154.3125 240.570312 152.460938 239.960938 151.355469 240.464844 C 150.183594 241 149.761719 240.4375 141.605469 227.558594 L 137.789062 221.535156 L 138.867188 220.121094 C 139.460938 219.347656 140.070312 218.101562 140.21875 217.359375 C 140.460938 216.144531 141.511719 215.417969 150.652344 210.15625 C 156.246094 206.9375 161.144531 204.359375 161.539062 204.425781 C 161.9375 204.492188 165.015625 206.101562 168.382812 208 Z M 111.125 212.203125 C 114.519531 213.640625 118.441406 215.269531 119.84375 215.828125 C 121.964844 216.675781 122.5 217.117188 123.046875 218.488281 C 123.867188 220.523438 125.457031 222.269531 127.417969 223.28125 C 129.304688 224.257812 133.101562 224.257812 134.980469 223.289062 C 135.757812 222.886719 136.574219 222.671875 136.796875 222.808594 C 137.019531 222.945312 139.15625 226.132812 141.546875 229.886719 C 143.941406 233.644531 146.699219 237.890625 147.683594 239.320312 C 148.667969 240.753906 149.371094 242.027344 149.246094 242.152344 C 149.121094 242.277344 145.917969 242.742188 142.132812 243.1875 L 135.242188 243.996094 L 133.558594 242.488281 C 131.390625 240.542969 129.757812 240.503906 127.65625 242.34375 L 126.097656 243.714844 L 116.984375 236.027344 C 111.972656 231.796875 106.769531 227.386719 105.421875 226.21875 L 102.96875 224.101562 L 103.523438 218.53125 C 104.125 212.464844 104.53125 209.59375 104.789062 209.59375 C 104.878906 209.59375 107.730469 210.769531 111.125 212.203125 Z M 247.832031 211.734375 C 247.972656 212.171875 248.714844 213.21875 249.488281 214.0625 C 250.847656 215.550781 250.863281 215.617188 250.039062 216.292969 C 235.527344 228.183594 225.777344 236.210938 223.695312 237.988281 C 221.515625 239.847656 220.9375 240.144531 220.332031 239.710938 C 219.925781 239.425781 218.839844 238.738281 217.917969 238.179688 C 215.996094 237.019531 216.023438 237.214844 216.652344 228.492188 C 216.980469 223.9375 217.132812 223.285156 218.125 222.296875 C 218.855469 221.566406 223.789062 219.460938 232.652344 216.097656 C 240.03125 213.296875 246.410156 210.992188 246.824219 210.972656 C 247.242188 210.953125 247.695312 211.296875 247.832031 211.734375 Z M 276.476562 213.203125 C 281.222656 214.449219 285.863281 215.667969 286.789062 215.910156 C 287.714844 216.15625 288.472656 216.589844 288.472656 216.875 C 288.472656 217.160156 289.175781 219.222656 290.039062 221.453125 C 290.902344 223.683594 293.59375 231.207031 296.027344 238.171875 L 300.445312 250.832031 L 298.847656 251.621094 C 296.835938 252.609375 295.648438 254.636719 295.492188 257.355469 L 295.367188 259.46875 L 290.238281 259.414062 C 278.371094 259.285156 268.199219 258.765625 268.054688 258.28125 C 267.8125 257.476562 263.085938 236.542969 260.914062 226.667969 C 259.804688 221.632812 258.988281 217.371094 259.09375 217.199219 C 259.199219 217.023438 259.847656 216.773438 260.53125 216.636719 C 262.347656 216.269531 265.386719 213.914062 266.09375 212.320312 C 266.429688 211.5625 266.960938 210.941406 267.277344 210.941406 C 267.589844 210.941406 271.730469 211.957031 276.476562 213.203125 Z M 253.96875 216.835938 C 254.808594 217.117188 255.550781 217.394531 255.625 217.449219 C 255.738281 217.539062 243.3125 254.300781 242.480469 256.332031 C 242.304688 256.761719 241.996094 257.113281 241.792969 257.113281 C 241.402344 257.113281 229.472656 251.832031 224.980469 249.671875 L 222.289062 248.375 L 222.433594 246.457031 C 222.511719 245.402344 222.335938 243.808594 222.039062 242.910156 C 221.535156 241.390625 221.574219 241.21875 222.585938 240.484375 C 223.773438 239.617188 246.636719 220.832031 249.882812 218.054688 C 252.183594 216.085938 251.953125 216.15625 253.96875 216.835938 Z M 258.34375 221.25 C 258.84375 223.347656 260.578125 231.011719 262.191406 238.285156 C 263.808594 245.558594 265.519531 253.125 265.996094 255.097656 C 266.472656 257.066406 266.789062 258.757812 266.695312 258.851562 C 266.601562 258.941406 261.808594 258.871094 256.042969 258.691406 C 247.3125 258.421875 245.398438 258.242188 244.574219 257.621094 L 243.585938 256.875 L 250.109375 237.605469 C 257.824219 214.824219 257.042969 217.046875 257.261719 217.265625 C 257.355469 217.359375 257.84375 219.15625 258.34375 221.25 Z M 215.464844 225.523438 C 215.414062 226.996094 215.246094 230.148438 215.089844 232.527344 L 214.808594 236.855469 L 213.179688 237.160156 C 210.269531 237.707031 207.855469 239.554688 206.09375 242.582031 C 205.613281 243.40625 205.480469 243.402344 200.707031 242.421875 C 198.019531 241.871094 195.390625 241.417969 194.871094 241.421875 C 194.042969 241.425781 193.890625 241.09375 193.675781 238.847656 C 193.542969 237.429688 193.308594 235.960938 193.15625 235.582031 C 192.945312 235.058594 194.730469 233.851562 200.628906 230.539062 C 204.890625 228.144531 209.691406 225.378906 211.296875 224.398438 C 215.167969 222.03125 215.582031 222.144531 215.464844 225.523438 Z M 115.085938 235.789062 C 123.816406 243.296875 125.839844 245.253906 126.320312 246.660156 C 127 248.644531 128.398438 249.941406 129.855469 249.941406 C 130.804688 249.941406 133.269531 252.480469 141.65625 262.085938 L 143.058594 263.695312 L 135.140625 269.929688 C 130.785156 273.363281 126.875 276.421875 126.445312 276.730469 C 125.773438 277.210938 125.546875 277.085938 124.757812 275.816406 C 124.257812 275.003906 123.078125 273.910156 122.140625 273.382812 C 120.570312 272.5 119.894531 271.339844 113.605469 258.726562 C 108.070312 247.632812 106.820312 244.78125 107.027344 243.738281 C 107.230469 242.722656 107.050781 242.269531 106.152344 241.5625 C 105.09375 240.734375 104.988281 240.277344 104.539062 234.683594 C 104.015625 228.15625 103.960938 226.632812 104.246094 226.632812 C 104.351562 226.632812 109.226562 230.75 115.085938 235.789062 Z M 176.609375 243.890625 C 177.003906 244.605469 176.652344 246.421875 174.894531 252.855469 C 173.679688 257.292969 172.21875 262.941406 171.644531 265.410156 L 170.601562 269.890625 L 165.332031 261.824219 C 162.433594 257.382812 158.667969 251.636719 156.964844 249.046875 C 154.234375 244.894531 153.953125 244.273438 154.585938 243.804688 C 154.984375 243.511719 159.171875 242.351562 163.894531 241.222656 C 168.621094 240.09375 173.089844 239.015625 173.832031 238.824219 C 175.15625 238.480469 175.183594 238.507812 175.648438 240.734375 C 175.90625 241.976562 176.339844 243.398438 176.609375 243.890625 Z M 201.046875 243.710938 C 203.429688 244.179688 205.5 244.5625 205.644531 244.5625 C 205.792969 244.5625 205.914062 245.378906 205.914062 246.378906 C 205.914062 248.636719 206.753906 250.300781 208.796875 252.09375 C 210.960938 253.992188 214.1875 254.476562 217.128906 253.347656 C 217.636719 253.152344 219.125 255.511719 223.089844 262.804688 C 226 268.152344 228.269531 272.808594 228.136719 273.15625 C 227.929688 273.695312 225.253906 273.742188 210.285156 273.472656 C 200.601562 273.296875 192.539062 273.027344 192.371094 272.867188 C 192.203125 272.710938 190.976562 267.035156 189.648438 260.253906 L 187.230469 247.925781 L 188.652344 247.164062 C 190.140625 246.367188 192.902344 243.5 192.902344 242.75 C 192.902344 242.25 194.691406 242.460938 201.046875 243.710938 Z M 150.4375 244.339844 C 150.578125 244.707031 151.164062 245.011719 151.734375 245.011719 C 152.566406 245.011719 153.445312 246.03125 156.089844 250.054688 C 157.914062 252.828125 161.6875 258.578125 164.480469 262.832031 C 167.269531 267.085938 169.304688 270.5625 169 270.5625 C 168.695312 270.5625 167.738281 270.121094 166.875 269.585938 C 166.011719 269.050781 162.773438 267.1875 159.675781 265.441406 C 154.433594 262.488281 154.0625 262.195312 154.316406 261.148438 C 155.066406 258.066406 153.023438 254.507812 149.917969 253.484375 C 146.515625 252.363281 142.664062 254.988281 142.21875 258.734375 L 141.972656 260.785156 L 137.710938 255.949219 C 135.367188 253.289062 133.085938 250.777344 132.644531 250.367188 C 131.878906 249.652344 131.894531 249.585938 132.96875 248.882812 C 133.589844 248.476562 134.265625 247.488281 134.472656 246.691406 L 134.847656 245.234375 L 140.878906 244.507812 C 148.910156 243.535156 150.121094 243.515625 150.4375 244.339844 Z M 181.347656 247.460938 C 182.257812 247.839844 183.695312 248.148438 184.546875 248.148438 C 186.015625 248.148438 186.105469 248.242188 186.40625 250.054688 C 186.578125 251.101562 187.605469 256.464844 188.6875 261.972656 C 189.773438 267.480469 190.65625 272.25 190.65625 272.574219 C 190.65625 273.046875 189.015625 273.113281 182.242188 272.917969 C 173.160156 272.652344 171.855469 272.3125 171.824219 270.203125 C 171.8125 269.117188 173.464844 262.273438 176.121094 252.410156 C 178.222656 244.613281 177.964844 245.203125 178.90625 246.054688 C 179.339844 246.449219 180.441406 247.082031 181.347656 247.460938 Z M 224.601562 250.890625 C 226.292969 251.65625 230.601562 253.585938 234.179688 255.179688 C 237.757812 256.773438 240.867188 258.253906 241.089844 258.46875 C 241.625 258.992188 240.820312 260.160156 235.199219 267.039062 C 232.613281 270.207031 230.320312 272.691406 230.109375 272.5625 C 229.722656 272.324219 227.488281 268.375 221.914062 258.078125 L 218.914062 252.542969 L 220.152344 251.050781 C 220.835938 250.230469 221.425781 249.542969 221.460938 249.527344 C 221.5 249.507812 222.914062 250.121094 224.601562 250.890625 Z M 263.636719 260.09375 L 267.292969 260.378906 L 267.828125 263.117188 C 268.121094 264.625 268.9375 268.265625 269.640625 271.210938 C 270.34375 274.15625 270.832031 276.703125 270.726562 276.875 C 270.621094 277.046875 269.808594 277.324219 268.917969 277.488281 C 267.257812 277.800781 263.351562 281.183594 263.339844 282.320312 C 263.320312 283.875 262.683594 284.011719 259.511719 283.136719 C 236.273438 276.75 231.039062 275.175781 231.039062 274.597656 C 231.039062 274.367188 233.144531 271.570312 235.71875 268.382812 C 238.292969 265.191406 240.652344 262.175781 240.960938 261.683594 C 241.402344 260.980469 241.847656 260.835938 243.003906 261.023438 C 244.109375 261.203125 244.554688 261.082031 244.765625 260.535156 C 245.007812 259.902344 246.027344 259.804688 252.511719 259.808594 C 256.621094 259.808594 261.625 259.9375 263.636719 260.09375 Z M 296.910156 261.726562 L 297.957031 262.710938 L 296.859375 263.609375 C 292.429688 267.246094 278.261719 278.546875 277.796875 278.820312 C 277.476562 279.007812 276.890625 278.890625 276.496094 278.558594 C 276.101562 278.230469 274.964844 277.660156 273.96875 277.289062 L 272.160156 276.617188 L 270.457031 268.996094 C 269.523438 264.804688 268.75 261.089844 268.742188 260.742188 C 268.730469 260.207031 270.78125 260.160156 282.296875 260.429688 C 295.421875 260.734375 295.894531 260.777344 296.910156 261.726562 Z M 159.347656 266.832031 C 162.625 268.722656 166.140625 270.742188 167.15625 271.320312 C 168.46875 272.066406 169.085938 272.753906 169.269531 273.675781 C 169.421875 274.421875 169.90625 275.09375 170.410156 275.253906 C 170.941406 275.421875 173.121094 278.605469 175.886719 283.246094 C 178.414062 287.492188 182.546875 294.390625 185.070312 298.582031 C 187.59375 302.773438 189.605469 306.261719 189.546875 306.328125 C 189.429688 306.457031 159.136719 294.046875 138.160156 285.28125 C 135.816406 284.300781 132.132812 282.78125 129.972656 281.90625 C 124.675781 279.757812 124.71875 279.476562 131.054688 274.597656 C 133.777344 272.503906 137.816406 269.390625 140.023438 267.679688 L 144.042969 264.570312 L 145.320312 265.328125 C 146.023438 265.742188 147.351562 266.082031 148.273438 266.082031 C 149.921875 266.082031 152.96875 264.605469 152.96875 263.804688 C 152.96875 263.578125 153.0625 263.390625 153.179688 263.390625 C 153.296875 263.390625 156.074219 264.9375 159.347656 266.832031 Z M 191.042969 274.398438 C 191.132812 274.480469 191.675781 277.03125 192.25 280.066406 C 192.820312 283.101562 193.910156 288.488281 194.667969 292.042969 C 195.421875 295.59375 196.042969 298.652344 196.042969 298.835938 C 196.042969 299.019531 195.183594 299.679688 194.132812 300.304688 C 193.085938 300.925781 191.824219 302.054688 191.332031 302.808594 C 190.835938 303.566406 190.300781 304.183594 190.144531 304.1875 C 189.746094 304.1875 188.300781 301.859375 179.933594 287.722656 C 175.960938 281.011719 172.710938 275.304688 172.710938 275.046875 C 172.710938 274.785156 173.109375 274.421875 173.59375 274.242188 C 174.4375 273.933594 190.699219 274.078125 191.042969 274.398438 Z M 222.851562 274.871094 C 225.648438 275.015625 227.898438 275.332031 227.898438 275.574219 C 227.898438 276.03125 221.230469 283.949219 211.851562 294.625 L 206.273438 300.976562 L 204.230469 299.894531 C 202.804688 299.136719 201.464844 298.808594 199.796875 298.808594 C 197.683594 298.808594 197.375 298.691406 197.171875 297.800781 C 196.75 295.980469 192.453125 274.847656 192.453125 274.601562 C 192.453125 274.304688 216.027344 274.511719 222.851562 274.871094 Z M 245.003906 280.152344 C 252.253906 282.207031 259.257812 284.136719 260.566406 284.449219 C 262.917969 285.003906 262.945312 285.027344 262.808594 286.570312 L 262.671875 288.125 L 254.820312 291.03125 C 234.996094 298.363281 210.339844 307.324219 209.992188 307.324219 C 209.785156 307.324219 209.503906 306.769531 209.367188 306.09375 C 209.230469 305.414062 208.613281 304.113281 207.996094 303.207031 C 207.378906 302.296875 207.023438 301.488281 207.210938 301.414062 C 207.589844 301.253906 215.167969 292.714844 223.324219 283.246094 C 229.054688 276.597656 229.894531 275.835938 231.09375 276.199219 C 231.496094 276.316406 237.753906 278.097656 245.003906 280.152344 Z M 245.003906 280.152344 " fill-opacity="1" fill-rule="evenodd"/></g></svg>